<svg id="svg" version="1.1" xmlns="http://www.w3.org/2000/svg" xmlns:xlink="http://www.w3.org/1999/xlink" width="200" height="200" viewBox="0, 0, 400,400"><g id="svgg"><path id="path0" d="M189.100 0.272 C 188.055 0.366,187.200 0.614,187.200 0.822 C 187.200 1.030,186.480 1.200,185.600 1.200 C 184.720 1.200,184.000 1.380,184.000 1.600 C 184.000 1.820,183.561 2.000,183.024 2.000 C 182.487 2.000,181.936 2.180,181.800 2.400 C 181.664 2.620,181.203 2.800,180.776 2.800 C 180.349 2.800,180.000 2.980,180.000 3.200 C 180.000 3.420,179.640 3.600,179.200 3.600 C 178.760 3.600,178.400 3.780,178.400 4.000 C 178.400 4.220,178.040 4.400,177.600 4.400 C 177.160 4.400,176.800 4.546,176.800 4.725 C 176.800 4.904,176.170 5.298,175.400 5.600 C 174.630 5.902,174.000 6.296,174.000 6.475 C 174.000 6.654,173.680 6.800,173.288 6.800 C 172.897 6.800,172.317 7.160,172.000 7.600 C 171.683 8.040,171.146 8.400,170.808 8.400 C 170.469 8.400,169.744 8.807,169.196 9.304 C 168.648 9.801,167.390 10.836,166.400 11.603 C 164.144 13.351,163.351 14.144,161.603 16.400 C 160.836 17.390,159.801 18.648,159.304 19.196 C 158.807 19.744,158.400 20.469,158.400 20.808 C 158.400 21.146,158.040 21.683,157.600 22.000 C 157.160 22.317,156.800 22.897,156.800 23.288 C 156.800 23.680,156.654 24.000,156.475 24.000 C 156.296 24.000,155.902 24.630,155.600 25.400 C 155.298 26.170,154.904 26.800,154.725 26.800 C 154.546 26.800,154.400 27.160,154.400 27.600 C 154.400 28.040,154.220 28.400,154.000 28.400 C 153.780 28.400,153.600 28.760,153.600 29.200 C 153.600 29.640,153.420 30.000,153.200 30.000 C 152.980 30.000,152.800 30.349,152.800 30.776 C 152.800 31.203,152.620 31.664,152.400 31.800 C 152.180 31.936,152.000 32.487,152.000 33.024 C 152.000 33.561,151.820 34.000,151.600 34.000 C 151.380 34.000,151.200 34.720,151.200 35.600 C 151.200 36.480,151.038 37.200,150.840 37.200 C 149.947 37.200,149.125 58.085,149.985 58.945 C 150.213 59.173,150.400 60.134,150.400 61.080 C 150.400 62.026,150.580 62.800,150.800 62.800 C 151.020 62.800,151.200 63.520,151.200 64.400 C 151.200 65.280,151.380 66.000,151.600 66.000 C 151.820 66.000,152.000 66.439,152.000 66.976 C 152.000 67.513,152.180 68.064,152.400 68.200 C 152.620 68.336,152.800 68.797,152.800 69.224 C 152.800 69.651,152.980 70.000,153.200 70.000 C 153.420 70.000,153.600 70.360,153.600 70.800 C 153.600 71.240,153.780 71.600,154.000 71.600 C 154.220 71.600,154.400 71.960,154.400 72.400 C 154.400 72.840,154.546 73.200,154.725 73.200 C 154.904 73.200,155.298 73.830,155.600 74.600 C 155.902 75.370,156.296 76.000,156.475 76.000 C 156.654 76.000,156.800 76.320,156.800 76.712 C 156.800 77.103,157.160 77.683,157.600 78.000 C 158.040 78.317,158.400 78.854,158.400 79.192 C 158.400 79.531,158.807 80.256,159.304 80.804 C 159.801 81.352,160.831 82.610,161.593 83.600 C 163.114 85.578,163.729 86.185,166.399 88.345 C 168.380 89.946,168.882 90.357,169.769 91.100 C 170.098 91.375,170.604 91.600,170.895 91.600 C 171.186 91.600,171.683 91.960,172.000 92.400 C 172.317 92.840,172.897 93.200,173.288 93.200 C 173.680 93.200,174.000 93.346,174.000 93.525 C 174.000 93.704,174.630 94.098,175.400 94.400 C 176.170 94.702,176.800 95.096,176.800 95.275 C 176.800 95.454,177.160 95.600,177.600 95.600 C 178.040 95.600,178.400 95.780,178.400 96.000 C 178.400 96.220,178.760 96.400,179.200 96.400 C 179.640 96.400,180.000 96.580,180.000 96.800 C 180.000 97.020,180.349 97.200,180.776 97.200 C 181.203 97.200,181.664 97.380,181.800 97.600 C 181.936 97.820,182.487 98.000,183.024 98.000 C 183.561 98.000,184.000 98.180,184.000 98.400 C 184.000 98.620,184.720 98.800,185.600 98.800 C 186.480 98.800,187.200 98.980,187.200 99.200 C 187.200 99.420,188.100 99.600,189.200 99.600 C 190.300 99.600,191.200 99.780,191.200 100.000 C 191.200 100.255,194.400 100.400,200.000 100.400 C 205.600 100.400,208.800 100.255,208.800 100.000 C 208.800 99.780,209.700 99.600,210.800 99.600 C 211.900 99.600,212.800 99.420,212.800 99.200 C 212.800 98.980,213.520 98.800,214.400 98.800 C 215.280 98.800,216.000 98.620,216.000 98.400 C 216.000 98.180,216.439 98.000,216.976 98.000 C 217.513 98.000,218.064 97.820,218.200 97.600 C 218.336 97.380,218.797 97.200,219.224 97.200 C 219.651 97.200,220.000 97.020,220.000 96.800 C 220.000 96.580,220.360 96.400,220.800 96.400 C 221.240 96.400,221.600 96.220,221.600 96.000 C 221.600 95.780,221.960 95.600,222.400 95.600 C 222.840 95.600,223.200 95.454,223.200 95.275 C 223.200 95.096,223.830 94.702,224.600 94.400 C 225.370 94.098,226.000 93.704,226.000 93.525 C 226.000 93.346,226.320 93.200,226.712 93.200 C 227.103 93.200,227.683 92.840,228.000 92.400 C 228.317 91.960,228.820 91.600,229.117 91.600 C 229.414 91.600,229.908 91.375,230.215 91.100 C 230.828 90.550,230.985 90.425,233.600 88.398 C 235.858 86.647,236.651 85.854,238.395 83.600 C 239.162 82.610,239.971 81.581,240.194 81.314 C 240.417 81.047,240.825 80.559,241.100 80.231 C 241.375 79.902,241.600 79.396,241.600 79.105 C 241.600 78.814,241.960 78.317,242.400 78.000 C 242.840 77.683,243.200 77.103,243.200 76.712 C 243.200 76.320,243.346 76.000,243.525 76.000 C 243.704 76.000,244.098 75.370,244.400 74.600 C 244.702 73.830,245.096 73.200,245.275 73.200 C 245.454 73.200,245.600 72.840,245.600 72.400 C 245.600 71.960,245.780 71.600,246.000 71.600 C 246.220 71.600,246.400 71.240,246.400 70.800 C 246.400 70.360,246.580 70.000,246.800 70.000 C 247.020 70.000,247.200 69.651,247.200 69.224 C 247.200 68.797,247.380 68.336,247.600 68.200 C 247.820 68.064,248.000 67.513,248.000 66.976 C 248.000 66.439,248.180 66.000,248.400 66.000 C 248.620 66.000,248.800 65.280,248.800 64.400 C 248.800 63.520,248.980 62.800,249.200 62.800 C 249.420 62.800,249.600 62.001,249.600 61.024 C 249.600 60.047,249.780 59.136,250.000 59.000 C 250.247 58.847,250.400 55.404,250.400 50.000 C 250.400 44.596,250.247 41.153,250.000 41.000 C 249.780 40.864,249.600 39.953,249.600 38.976 C 249.600 37.999,249.420 37.200,249.200 37.200 C 248.980 37.200,248.800 36.480,248.800 35.600 C 248.800 34.720,248.620 34.000,248.400 34.000 C 248.180 34.000,248.000 33.561,248.000 33.024 C 248.000 32.487,247.820 31.936,247.600 31.800 C 247.380 31.664,247.200 31.203,247.200 30.776 C 247.200 30.349,247.020 30.000,246.800 30.000 C 246.580 30.000,246.400 29.640,246.400 29.200 C 246.400 28.760,246.220 28.400,246.000 28.400 C 245.780 28.400,245.600 28.040,245.600 27.600 C 245.600 27.160,245.454 26.800,245.275 26.800 C 245.096 26.800,244.702 26.170,244.400 25.400 C 244.098 24.630,243.704 24.000,243.525 24.000 C 243.346 24.000,243.200 23.680,243.200 23.288 C 243.200 22.897,242.840 22.317,242.400 22.000 C 241.960 21.683,241.600 21.180,241.600 20.883 C 241.600 20.586,241.375 20.092,241.100 19.785 C 240.550 19.172,240.425 19.015,238.398 16.400 C 236.648 14.144,235.855 13.351,233.600 11.603 C 232.610 10.836,231.352 9.801,230.804 9.304 C 230.256 8.807,229.531 8.400,229.192 8.400 C 228.854 8.400,228.317 8.040,228.000 7.600 C 227.683 7.160,227.103 6.800,226.712 6.800 C 226.320 6.800,226.000 6.664,226.000 6.498 C 226.000 6.331,225.415 5.941,224.700 5.630 C 223.985 5.319,223.310 4.960,223.200 4.832 C 222.794 4.360,221.192 3.600,220.605 3.600 C 220.272 3.600,220.000 3.420,220.000 3.200 C 220.000 2.980,219.651 2.800,219.224 2.800 C 218.797 2.800,218.336 2.620,218.200 2.400 C 218.064 2.180,217.513 2.000,216.976 2.000 C 216.439 2.000,216.000 1.820,216.000 1.600 C 216.000 1.380,215.295 1.200,214.433 1.200 C 213.552 1.200,212.795 0.985,212.703 0.710 C 212.539 0.217,193.582 -0.135,189.100 0.272 M203.241 13.712 C 204.476 14.541,205.625 16.264,206.168 18.100 C 206.345 18.700,206.893 18.800,210.003 18.800 C 216.896 18.800,220.370 22.605,217.944 27.497 C 216.280 30.852,215.211 31.186,206.095 31.193 C 200.685 31.198,198.123 31.349,197.495 31.700 C 190.561 35.576,192.980 43.074,201.471 44.025 C 211.499 45.148,218.145 52.375,218.183 62.200 C 218.200 66.653,218.006 67.566,216.277 71.136 C 214.800 74.189,209.020 79.600,207.236 79.600 C 206.676 79.600,206.000 80.951,205.999 82.074 C 205.988 88.879,195.853 88.734,193.832 81.900 C 193.655 81.300,193.107 81.200,189.997 81.200 C 183.104 81.200,179.630 77.395,182.056 72.503 C 183.720 69.148,184.789 68.814,193.905 68.807 C 199.315 68.802,201.877 68.651,202.505 68.300 C 209.441 64.424,207.018 56.917,198.529 55.982 C 180.207 53.963,175.239 29.366,191.467 21.015 C 193.574 19.930,193.999 19.402,194.001 17.867 C 194.008 14.008,199.801 11.403,203.241 13.712 M95.200 137.600 C 95.200 137.820,94.750 138.000,94.200 138.000 C 93.650 138.000,93.200 138.180,93.200 138.400 C 93.200 138.620,93.015 138.800,92.789 138.800 C 92.255 138.800,88.800 142.255,88.800 142.789 C 88.800 143.015,88.620 143.200,88.400 143.200 C 88.180 143.200,88.000 143.650,88.000 144.200 C 88.000 144.750,87.820 145.200,87.600 145.200 C 86.771 145.200,87.087 207.221,87.923 208.489 C 88.318 209.087,90.042 211.112,91.755 212.989 L 94.869 216.400 99.934 216.398 C 102.720 216.397,108.600 216.575,113.000 216.793 C 117.400 217.012,125.860 217.376,131.800 217.602 C 156.137 218.527,158.563 218.705,160.917 219.746 C 170.735 224.088,170.706 238.208,160.870 242.711 C 158.165 243.949,155.777 244.087,107.400 245.799 C 97.720 246.141,89.215 246.515,88.500 246.629 L 87.200 246.836 87.200 250.795 C 87.200 253.002,87.377 254.862,87.600 255.000 C 87.820 255.136,88.000 255.597,88.000 256.024 C 88.000 256.451,88.180 256.800,88.400 256.800 C 88.620 256.800,88.800 256.985,88.800 257.211 C 88.800 257.917,92.137 260.958,93.946 261.900 L 95.676 262.800 150.214 262.800 C 186.142 262.800,204.837 262.664,205.000 262.400 C 205.136 262.180,205.607 262.000,206.047 262.000 C 206.487 262.000,206.736 261.820,206.600 261.600 C 206.464 261.380,206.638 261.200,206.987 261.200 C 207.336 261.200,208.426 260.395,209.411 259.411 C 210.395 258.426,211.200 257.336,211.200 256.987 C 211.200 256.638,211.380 256.464,211.600 256.600 C 211.820 256.736,212.000 256.487,212.000 256.047 C 212.000 255.607,212.180 255.136,212.400 255.000 C 212.664 254.837,212.800 236.142,212.800 200.214 L 212.800 145.676 211.900 143.946 C 210.958 142.137,207.917 138.800,207.211 138.800 C 206.985 138.800,206.800 138.620,206.800 138.400 C 206.800 138.180,206.350 138.000,205.800 138.000 C 205.250 138.000,204.800 137.820,204.800 137.600 C 204.800 137.335,186.267 137.200,150.000 137.200 C 113.733 137.200,95.200 137.335,95.200 137.600 M262.000 140.200 L 262.000 143.200 252.579 143.200 L 243.158 143.200 243.238 146.213 C 243.282 147.870,243.471 149.320,243.659 149.436 C 243.846 149.552,244.000 150.796,244.000 152.200 C 244.000 153.604,244.180 154.864,244.400 155.000 C 244.620 155.136,244.800 156.407,244.800 157.824 C 244.800 159.275,244.975 160.400,245.200 160.400 C 245.429 160.400,245.600 161.600,245.600 163.200 C 245.600 164.800,245.771 166.000,246.000 166.000 C 246.226 166.000,246.400 167.133,246.400 168.600 C 246.400 170.067,246.574 171.200,246.800 171.200 C 247.020 171.200,247.200 171.470,247.200 171.800 C 247.200 172.684,247.700 172.548,249.900 171.067 C 255.729 167.145,259.121 167.933,272.000 176.203 C 275.973 178.754,276.800 178.926,276.800 177.200 C 276.800 176.540,276.980 176.000,277.200 176.000 C 277.420 176.000,277.600 175.460,277.600 174.800 C 277.600 174.140,277.780 173.600,278.000 173.600 C 278.220 173.600,278.400 172.970,278.400 172.200 C 278.400 171.430,278.580 170.800,278.800 170.800 C 279.020 170.800,279.200 170.260,279.200 169.600 C 279.200 168.940,279.380 168.400,279.600 168.400 C 279.820 168.400,280.000 167.680,280.000 166.800 C 280.000 165.920,280.180 165.200,280.400 165.200 C 280.620 165.200,280.800 164.660,280.800 164.000 C 280.800 163.340,280.980 162.800,281.200 162.800 C 281.420 162.800,281.600 162.080,281.600 161.200 C 281.600 160.320,281.780 159.600,282.000 159.600 C 282.220 159.600,282.400 159.060,282.400 158.400 C 282.400 157.740,282.580 157.200,282.800 157.200 C 283.020 157.200,283.200 156.570,283.200 155.800 C 283.200 155.030,283.380 154.400,283.600 154.400 C 283.820 154.400,284.000 153.871,284.000 153.224 C 284.000 152.577,284.180 151.936,284.400 151.800 C 284.620 151.664,284.800 150.933,284.800 150.176 C 284.800 149.419,284.980 148.800,285.200 148.800 C 285.420 148.800,285.600 148.260,285.600 147.600 C 285.600 146.940,285.780 146.400,286.000 146.400 C 286.220 146.400,286.400 145.680,286.400 144.800 C 286.400 143.920,286.580 143.200,286.800 143.200 C 287.020 143.200,287.200 142.660,287.200 142.000 C 287.200 141.340,287.380 140.800,287.600 140.800 C 287.820 140.800,288.000 139.990,288.000 139.000 L 288.000 137.200 275.000 137.200 L 262.000 137.200 262.000 140.200 " stroke="none" fill="black" fill-rule="evenodd"></path><path id="path1" d="M340.491 59.091 C 339.551 59.177,338.877 59.401,338.993 59.589 C 339.109 59.777,338.664 59.846,338.002 59.741 C 337.269 59.626,336.800 59.727,336.800 60.000 C 336.800 60.246,336.641 60.349,336.446 60.228 C 336.087 60.007,333.568 60.734,333.200 61.166 C 333.090 61.294,332.820 61.420,332.600 61.443 C 331.661 61.546,330.400 62.120,330.400 62.447 C 330.400 62.641,330.040 62.800,329.600 62.800 C 329.160 62.800,328.800 62.944,328.800 63.120 C 328.800 63.295,328.215 63.653,327.500 63.914 C 326.785 64.176,325.570 64.932,324.800 65.594 C 324.030 66.256,323.130 66.801,322.800 66.805 C 322.267 66.811,322.267 66.855,322.800 67.200 C 323.293 67.519,323.252 67.589,322.568 67.594 C 322.095 67.597,321.506 68.029,321.204 68.593 C 320.911 69.140,320.338 69.693,319.930 69.822 C 319.522 69.952,319.292 70.225,319.418 70.429 C 319.544 70.633,319.356 70.800,319.000 70.800 C 318.644 70.800,318.464 70.980,318.600 71.200 C 318.736 71.420,318.567 71.600,318.224 71.600 C 317.881 71.600,317.621 71.735,317.647 71.900 C 317.811 72.935,317.583 73.393,317.200 72.800 C 316.859 72.272,316.812 72.275,316.806 72.825 C 316.803 73.168,316.485 73.805,316.100 74.240 C 314.742 75.773,313.600 77.575,313.600 78.184 C 313.600 78.523,313.409 78.800,313.176 78.800 C 312.943 78.800,312.851 78.960,312.972 79.155 C 313.093 79.350,312.934 79.723,312.619 79.984 C 312.305 80.245,312.137 80.692,312.247 80.978 C 312.356 81.263,312.147 81.612,311.781 81.752 C 311.397 81.899,311.213 82.258,311.346 82.603 C 311.472 82.932,311.407 83.200,311.203 83.200 C 310.722 83.200,309.857 86.227,309.864 87.884 C 309.868 88.590,309.743 89.088,309.586 88.991 C 308.868 88.548,308.577 100.041,309.229 103.096 C 309.453 104.143,309.638 105.270,309.642 105.600 C 309.652 106.618,310.853 110.385,311.244 110.627 C 311.447 110.753,311.509 111.024,311.381 111.231 C 311.253 111.437,311.432 111.889,311.778 112.235 C 312.124 112.581,312.305 113.030,312.180 113.232 C 312.055 113.435,312.143 113.600,312.376 113.600 C 312.609 113.600,312.800 113.960,312.800 114.400 C 312.800 114.840,312.980 115.200,313.200 115.200 C 313.420 115.200,313.600 115.560,313.600 116.000 C 313.600 116.458,313.867 116.800,314.224 116.800 C 314.567 116.800,314.740 116.973,314.610 117.184 C 314.301 117.683,315.251 119.200,315.873 119.200 C 316.137 119.200,316.481 119.408,316.638 119.662 C 316.832 119.975,316.743 120.015,316.362 119.785 C 314.342 118.568,321.247 125.443,323.827 127.218 C 324.802 127.889,325.600 128.595,325.600 128.787 C 325.600 128.979,326.152 129.258,326.827 129.406 C 327.502 129.554,328.151 129.928,328.270 130.238 C 328.388 130.547,328.826 130.800,329.243 130.800 C 329.659 130.800,330.000 130.980,330.000 131.200 C 330.000 131.420,330.360 131.600,330.800 131.600 C 331.240 131.600,331.600 131.791,331.600 132.024 C 331.600 132.257,331.753 132.352,331.941 132.236 C 332.129 132.120,332.624 132.284,333.041 132.600 C 333.458 132.916,334.194 133.180,334.676 133.187 C 335.158 133.194,335.664 133.380,335.800 133.600 C 335.936 133.820,336.656 134.000,337.400 134.000 C 338.144 134.000,338.845 134.150,338.959 134.333 C 339.249 134.803,354.034 134.870,354.595 134.404 C 354.847 134.195,355.640 133.979,356.357 133.925 C 357.074 133.870,357.748 133.685,357.854 133.513 C 357.960 133.341,358.476 133.200,359.000 133.200 C 359.524 133.200,360.064 133.020,360.200 132.800 C 360.336 132.580,360.797 132.400,361.224 132.400 C 361.651 132.400,362.000 132.220,362.000 132.000 C 362.000 131.780,362.249 131.600,362.554 131.600 C 363.384 131.600,365.227 130.560,364.927 130.261 C 364.784 130.117,365.157 130.000,365.757 130.000 C 366.382 130.000,366.742 129.829,366.600 129.600 C 366.464 129.380,366.708 129.200,367.142 129.200 C 367.577 129.200,368.442 128.660,369.065 128.000 C 369.688 127.340,370.378 126.794,370.599 126.787 C 371.161 126.770,373.200 124.924,373.200 124.433 C 373.200 124.210,373.602 123.813,374.092 123.551 C 375.109 123.006,376.652 121.175,376.496 120.697 C 376.439 120.521,376.664 120.273,376.996 120.146 C 377.328 120.019,377.600 119.653,377.600 119.334 C 377.600 119.014,377.764 118.854,377.965 118.979 C 378.166 119.103,378.570 118.664,378.863 118.002 C 379.156 117.341,379.531 116.800,379.698 116.800 C 379.864 116.800,379.979 116.665,379.953 116.500 C 379.810 115.596,380.052 114.785,380.400 115.000 C 380.620 115.136,380.800 114.877,380.800 114.424 C 380.800 113.971,380.980 113.600,381.200 113.600 C 381.420 113.600,381.579 113.465,381.553 113.300 C 381.410 112.396,381.652 111.585,382.000 111.800 C 382.220 111.936,382.400 111.687,382.400 111.247 C 382.400 110.807,382.580 110.336,382.800 110.200 C 383.020 110.064,383.200 109.524,383.200 109.000 C 383.200 108.476,383.380 107.936,383.600 107.800 C 383.820 107.664,384.000 106.944,384.000 106.200 C 384.000 105.456,384.163 104.746,384.363 104.623 C 384.866 104.312,384.852 89.544,384.348 88.937 C 384.128 88.672,383.932 87.897,383.913 87.213 C 383.893 86.530,383.725 85.877,383.539 85.762 C 383.352 85.647,383.200 85.220,383.200 84.814 C 383.200 84.408,382.817 83.294,382.350 82.338 C 381.882 81.382,381.374 80.330,381.221 80.000 C 380.313 78.048,378.905 75.712,378.300 75.153 C 377.915 74.797,377.600 74.311,377.600 74.073 C 377.600 73.835,377.285 73.456,376.900 73.232 C 376.515 73.008,376.342 72.819,376.516 72.812 C 376.689 72.805,376.599 72.549,376.316 72.242 C 376.032 71.935,375.665 71.766,375.500 71.866 C 375.335 71.965,375.200 71.756,375.200 71.400 C 375.200 71.044,375.020 70.864,374.800 71.000 C 374.580 71.136,374.400 71.048,374.400 70.805 C 374.400 70.282,370.806 66.551,370.788 67.055 C 370.781 67.245,370.592 67.085,370.368 66.700 C 370.144 66.315,369.689 66.000,369.357 66.000 C 369.024 66.000,368.854 65.836,368.979 65.635 C 369.103 65.434,368.664 65.030,368.002 64.737 C 367.341 64.444,366.800 64.049,366.800 63.860 C 366.800 63.670,366.530 63.618,366.200 63.745 C 365.870 63.871,365.600 63.829,365.600 63.652 C 365.600 63.277,363.646 62.243,362.883 62.213 C 362.599 62.202,362.223 61.960,362.047 61.675 C 361.871 61.391,361.563 61.199,361.363 61.249 C 361.164 61.299,360.550 61.151,360.000 60.921 C 355.677 59.111,348.080 58.398,340.491 59.091 M14.635 75.256 C 14.735 75.418,14.498 75.736,14.108 75.963 C 13.719 76.190,13.511 76.381,13.647 76.388 C 13.783 76.395,13.296 77.035,12.564 77.811 C 11.700 78.727,11.322 79.451,11.485 79.876 C 11.649 80.304,11.579 80.434,11.284 80.252 C 10.721 79.904,8.598 84.377,8.450 86.224 C 8.422 86.567,8.220 86.736,8.000 86.600 C 7.780 86.464,7.600 86.543,7.600 86.776 C 7.600 87.599,18.870 87.315,20.867 86.442 C 25.658 84.348,25.838 78.457,21.181 76.160 C 19.491 75.326,14.229 74.600,14.635 75.256 M6.000 104.200 C 6.000 106.467,6.161 108.000,6.400 108.000 C 6.620 108.000,6.800 108.705,6.800 109.567 C 6.800 110.428,6.978 111.193,7.197 111.267 C 7.415 111.340,7.634 111.895,7.684 112.500 C 7.734 113.105,7.876 113.600,8.000 113.600 C 8.124 113.600,8.467 114.420,8.763 115.422 C 9.059 116.424,9.561 117.504,9.879 117.822 C 10.197 118.140,10.323 118.400,10.159 118.400 C 9.995 118.400,10.218 118.805,10.654 119.300 C 11.090 119.795,11.658 120.695,11.915 121.300 C 12.172 121.905,12.567 122.400,12.791 122.400 C 13.016 122.400,13.171 122.535,13.136 122.700 C 12.998 123.353,13.720 124.400,14.309 124.400 C 14.653 124.400,14.828 124.505,14.699 124.634 C 14.357 124.976,18.414 128.839,18.840 128.576 C 19.038 128.453,19.200 128.646,19.200 129.005 C 19.200 129.796,20.141 130.800,20.883 130.800 C 21.180 130.800,21.683 131.160,22.000 131.600 C 22.317 132.040,22.875 132.400,23.239 132.400 C 23.604 132.400,24.112 132.653,24.368 132.961 C 24.624 133.270,25.861 134.002,27.117 134.587 C 28.373 135.172,29.713 135.820,30.095 136.026 C 30.477 136.231,31.141 136.400,31.571 136.400 C 32.001 136.400,32.464 136.580,32.600 136.800 C 32.736 137.020,33.437 137.200,34.157 137.200 C 34.877 137.200,35.602 137.335,35.766 137.500 C 36.456 138.190,51.200 138.295,51.200 137.610 C 51.200 137.458,51.425 137.309,51.700 137.279 C 51.975 137.249,52.773 137.172,53.472 137.107 C 54.172 137.042,54.877 136.856,55.039 136.694 C 55.201 136.532,55.764 136.400,56.290 136.400 C 56.826 136.400,57.138 136.224,57.000 136.000 C 56.864 135.780,56.988 135.586,57.276 135.569 C 58.527 135.496,59.340 135.220,59.615 134.775 C 59.778 134.513,60.111 134.421,60.355 134.572 C 60.600 134.724,60.800 134.657,60.800 134.424 C 60.800 134.191,61.056 134.000,61.369 134.000 C 61.682 134.000,62.467 133.555,63.114 133.011 C 63.760 132.467,64.403 132.136,64.542 132.275 C 64.681 132.414,65.132 132.139,65.544 131.664 C 65.957 131.189,66.460 130.800,66.664 130.800 C 67.212 130.800,69.971 128.104,69.699 127.833 C 69.571 127.705,69.777 127.600,70.157 127.600 C 70.537 127.600,70.736 127.420,70.600 127.200 C 70.464 126.980,70.552 126.800,70.795 126.800 C 71.038 126.800,71.686 126.350,72.236 125.800 C 72.786 125.250,73.111 124.800,72.957 124.800 C 72.803 124.800,73.065 124.464,73.539 124.053 C 74.012 123.642,74.400 123.002,74.400 122.629 C 74.400 122.257,74.564 122.054,74.765 122.179 C 74.966 122.303,75.370 121.864,75.663 121.202 C 75.956 120.541,76.331 120.000,76.498 120.000 C 76.664 120.000,76.800 119.640,76.800 119.200 C 76.800 118.760,76.980 118.400,77.200 118.400 C 77.420 118.400,77.600 118.130,77.600 117.800 C 77.600 117.470,77.780 117.200,78.000 117.200 C 78.220 117.200,78.400 116.750,78.400 116.200 C 78.400 115.650,78.591 115.200,78.824 115.200 C 79.057 115.200,79.145 115.035,79.020 114.832 C 78.895 114.630,79.064 114.193,79.396 113.861 C 79.728 113.529,80.000 112.794,80.000 112.229 C 80.000 111.663,80.180 111.200,80.400 111.200 C 80.620 111.200,80.800 110.480,80.800 109.600 C 80.800 108.720,80.947 108.000,81.126 108.000 C 81.305 108.000,81.497 106.290,81.553 104.200 L 81.654 100.400 43.827 100.400 L 6.000 100.400 6.000 104.200 M352.229 149.288 C 351.946 149.446,350.692 149.609,349.442 149.650 C 348.193 149.691,347.076 149.876,346.962 150.062 C 346.847 150.248,346.334 150.400,345.822 150.400 C 345.310 150.400,344.389 150.661,343.774 150.980 C 343.160 151.298,342.509 151.468,342.329 151.356 C 342.148 151.244,342.000 151.343,342.000 151.576 C 342.000 151.809,341.629 152.000,341.176 152.000 C 340.723 152.000,340.464 152.180,340.600 152.400 C 340.736 152.620,340.477 152.822,340.024 152.850 C 338.581 152.938,338.442 152.987,337.608 153.700 C 337.159 154.085,336.512 154.400,336.172 154.400 C 335.831 154.400,335.664 154.580,335.800 154.800 C 335.941 155.028,335.596 155.200,335.000 155.200 C 334.404 155.200,334.059 155.372,334.200 155.600 C 334.336 155.820,334.167 156.000,333.824 156.000 C 333.481 156.000,333.200 156.180,333.200 156.400 C 333.200 156.620,332.939 156.800,332.620 156.800 C 332.301 156.800,331.856 157.115,331.632 157.500 C 331.408 157.885,331.219 158.059,331.212 157.886 C 331.205 157.713,330.774 157.983,330.253 158.486 C 329.732 158.989,329.400 159.563,329.515 159.762 C 329.630 159.961,329.543 160.012,329.323 159.876 C 328.945 159.643,326.669 161.659,326.894 162.028 C 326.952 162.122,326.934 162.164,326.852 162.119 C 326.621 161.992,325.600 163.104,325.600 163.483 C 325.600 163.670,325.240 164.083,324.800 164.400 C 324.360 164.717,324.000 165.167,324.000 165.400 C 324.000 165.633,323.640 166.083,323.200 166.400 C 322.382 166.990,322.053 167.862,322.830 167.382 C 323.066 167.236,323.028 167.487,322.745 167.940 C 322.462 168.393,322.151 168.685,322.055 168.588 C 321.818 168.352,320.800 170.347,320.800 171.046 C 320.800 171.351,320.620 171.600,320.400 171.600 C 320.180 171.600,320.000 171.960,320.000 172.400 C 320.000 172.840,319.820 173.200,319.600 173.200 C 319.380 173.200,319.200 173.549,319.200 173.976 C 319.200 174.403,319.020 174.864,318.800 175.000 C 318.580 175.136,318.400 175.777,318.400 176.424 C 318.400 177.071,318.220 177.600,318.000 177.600 C 317.780 177.600,317.600 178.230,317.600 179.000 C 317.600 179.770,317.446 180.400,317.259 180.400 C 317.071 180.400,316.920 181.360,316.925 182.533 C 316.930 184.182,317.071 184.667,317.546 184.667 C 318.266 184.667,320.859 182.192,320.507 181.840 C 320.375 181.708,320.480 181.600,320.741 181.600 C 321.002 181.600,322.247 180.622,323.508 179.428 C 324.768 178.233,326.565 176.537,327.500 175.659 C 328.435 174.781,329.200 173.839,329.200 173.565 C 329.200 173.291,329.316 173.183,329.458 173.325 C 329.600 173.467,332.506 170.797,335.917 167.391 C 339.327 163.986,342.321 161.200,342.570 161.200 C 342.820 161.200,343.283 160.840,343.600 160.400 C 343.917 159.960,344.507 159.600,344.912 159.600 C 345.316 159.600,345.548 159.439,345.426 159.243 C 345.305 159.046,345.642 158.776,346.175 158.642 C 346.708 158.508,347.427 158.116,347.772 157.771 C 348.117 157.425,348.400 157.326,348.400 157.551 C 348.400 157.825,348.792 157.822,349.600 157.540 C 350.260 157.310,350.800 157.004,350.800 156.861 C 350.800 156.717,351.385 156.611,352.100 156.624 C 352.815 156.638,353.850 156.480,354.400 156.275 C 355.930 155.704,358.004 155.710,360.084 156.293 C 361.120 156.584,362.429 156.738,362.992 156.636 C 363.571 156.531,363.916 156.613,363.785 156.825 C 363.553 157.200,364.359 157.382,365.723 157.264 C 366.121 157.229,366.335 157.381,366.200 157.601 C 366.055 157.835,366.498 158.003,367.276 158.006 C 368.278 158.011,368.454 158.107,368.000 158.400 C 367.515 158.714,367.572 158.789,368.300 158.794 C 368.795 158.797,369.200 158.980,369.200 159.200 C 369.200 159.420,369.560 159.600,370.000 159.600 C 370.440 159.600,370.800 159.780,370.800 160.000 C 370.800 160.220,371.081 160.400,371.424 160.400 C 371.767 160.400,371.953 160.553,371.837 160.740 C 371.722 160.927,372.114 161.332,372.708 161.640 C 374.385 162.509,375.497 163.587,376.019 164.847 C 376.282 165.481,376.642 166.000,376.819 166.000 C 376.996 166.000,377.391 166.495,377.697 167.100 C 378.579 168.846,379.360 170.125,379.904 170.717 C 380.181 171.018,380.300 171.438,380.169 171.650 C 380.038 171.862,380.109 172.252,380.327 172.518 C 380.544 172.783,380.785 173.450,380.861 174.000 C 380.937 174.550,381.122 175.093,381.272 175.206 C 381.719 175.545,381.888 181.230,381.528 183.804 C 381.082 186.997,381.020 187.269,380.529 188.200 C 380.298 188.640,380.189 189.225,380.287 189.500 C 380.386 189.775,380.182 190.109,379.833 190.243 C 379.485 190.376,379.200 190.916,379.200 191.443 C 379.200 191.969,379.009 192.400,378.776 192.400 C 378.543 192.400,378.452 192.561,378.574 192.758 C 378.696 192.955,378.529 193.218,378.204 193.343 C 377.879 193.468,377.713 193.828,377.834 194.144 C 377.955 194.460,377.834 194.855,377.565 195.021 C 377.232 195.227,377.179 195.157,377.400 194.800 C 377.614 194.454,377.567 194.373,377.262 194.562 C 377.008 194.719,376.800 195.207,376.800 195.647 C 376.800 196.087,376.620 196.336,376.399 196.200 C 376.179 196.063,375.823 196.413,375.609 196.976 C 375.395 197.539,375.069 198.000,374.885 198.000 C 374.701 198.000,374.160 198.364,373.683 198.808 C 373.206 199.253,372.722 199.613,372.608 199.608 C 371.740 199.574,371.583 199.650,371.800 200.000 C 371.936 200.220,371.767 200.400,371.424 200.400 C 371.081 200.400,370.800 200.580,370.800 200.800 C 370.800 201.020,370.557 201.200,370.259 201.200 C 369.962 201.200,369.107 201.785,368.359 202.500 C 367.612 203.214,366.885 203.761,366.744 203.714 C 366.603 203.668,365.930 204.163,365.248 204.815 C 364.565 205.467,363.826 206.000,363.604 206.000 C 363.382 206.000,363.200 206.180,363.200 206.400 C 363.200 206.620,362.970 206.800,362.688 206.800 C 362.407 206.800,361.917 207.160,361.600 207.600 C 361.283 208.040,360.870 208.400,360.683 208.400 C 360.496 208.400,360.092 208.625,359.785 208.900 C 358.655 209.914,358.129 210.303,357.264 210.766 C 356.776 211.027,356.486 211.416,356.619 211.630 C 356.751 211.844,356.711 211.994,356.530 211.963 C 355.831 211.841,355.204 212.013,355.300 212.300 C 355.355 212.465,355.268 212.600,355.108 212.600 C 354.947 212.600,354.519 213.023,354.156 213.541 C 353.641 214.277,353.423 214.364,353.155 213.941 C 352.886 213.516,352.811 213.545,352.806 214.073 C 352.803 214.443,352.440 214.860,352.000 215.000 C 351.560 215.140,351.200 215.422,351.200 215.627 C 351.200 215.832,350.917 216.000,350.571 216.000 C 349.826 216.000,348.731 216.997,349.086 217.352 C 349.222 217.489,349.114 217.600,348.845 217.600 C 348.261 217.600,345.242 219.596,345.807 219.609 C 346.023 219.614,345.618 219.905,344.906 220.256 C 344.194 220.607,343.686 221.015,343.777 221.162 C 343.868 221.310,343.417 221.663,342.775 221.947 C 342.133 222.231,341.112 222.989,340.505 223.632 C 339.899 224.274,339.251 224.800,339.065 224.800 C 338.880 224.800,338.371 225.205,337.934 225.700 C 337.497 226.195,337.273 226.344,337.436 226.031 C 337.599 225.718,336.867 226.123,335.809 226.931 C 334.751 227.739,333.731 228.400,333.542 228.400 C 333.354 228.400,333.200 228.700,333.200 229.067 C 333.200 229.433,333.085 229.619,332.945 229.478 C 332.805 229.338,332.130 229.617,331.445 230.099 C 329.725 231.307,329.196 231.862,329.486 232.152 C 329.622 232.289,329.420 232.400,329.038 232.400 C 328.656 232.400,328.106 232.625,327.816 232.900 C 326.713 233.946,325.579 234.800,325.292 234.800 C 325.127 234.800,324.768 235.160,324.493 235.600 C 324.218 236.040,323.635 236.400,323.197 236.400 C 322.758 236.400,322.399 236.535,322.397 236.700 C 322.393 237.051,320.463 238.000,319.754 238.000 C 319.486 238.000,319.199 238.203,319.117 238.450 C 319.034 238.697,318.479 238.900,317.883 238.900 C 317.288 238.900,316.800 239.058,316.800 239.250 C 316.800 239.443,316.095 239.600,315.233 239.600 L 313.666 239.600 313.645 245.619 C 313.634 248.929,313.486 251.854,313.316 252.119 C 313.147 252.383,312.981 255.030,312.947 258.000 C 312.862 265.534,312.642 269.949,312.360 269.775 C 311.982 269.542,311.638 351.031,311.895 380.000 C 311.933 384.290,311.962 388.070,311.960 388.400 C 311.947 390.696,312.141 392.360,312.402 392.199 C 312.571 392.094,312.702 392.232,312.692 392.504 C 312.635 394.084,312.863 394.800,313.424 394.800 C 313.767 394.800,313.948 394.961,313.826 395.158 C 313.704 395.355,313.871 395.618,314.196 395.743 C 314.531 395.872,314.685 396.235,314.550 396.585 C 314.393 396.996,314.550 397.200,315.024 397.200 C 315.414 397.200,315.617 397.317,315.474 397.459 C 315.331 397.602,315.616 398.071,316.107 398.502 C 319.188 401.203,334.792 400.367,334.799 397.500 C 334.800 397.335,335.115 396.853,335.500 396.429 C 336.937 394.845,337.200 394.414,337.200 393.640 C 337.200 393.204,337.351 392.754,337.535 392.640 C 337.719 392.527,337.893 391.794,337.923 391.013 C 337.952 390.232,338.135 389.279,338.329 388.896 C 338.523 388.513,338.651 387.210,338.613 386.000 C 338.575 384.790,338.766 383.344,339.037 382.786 C 339.309 382.229,339.592 380.294,339.666 378.486 C 339.740 376.679,339.927 375.200,340.083 375.200 C 340.238 375.200,340.318 373.951,340.260 372.424 C 340.196 370.726,340.304 369.741,340.539 369.886 C 340.751 370.017,340.822 369.959,340.698 369.758 C 340.574 369.557,340.631 368.585,340.826 367.597 C 341.020 366.608,341.300 363.910,341.448 361.600 C 341.596 359.290,341.870 357.340,342.058 357.267 C 342.246 357.193,342.400 355.809,342.400 354.190 C 342.400 352.572,342.585 351.133,342.811 350.993 C 343.036 350.854,343.195 350.528,343.163 350.270 C 342.967 348.683,343.259 344.389,343.551 344.569 C 343.743 344.689,343.927 343.472,343.958 341.866 C 343.989 340.259,344.191 338.329,344.407 337.575 C 344.623 336.822,344.800 335.270,344.800 334.126 C 344.800 332.983,344.942 331.960,345.115 331.853 C 345.288 331.746,345.479 330.070,345.541 328.129 C 345.602 326.188,345.820 324.429,346.026 324.220 C 346.232 324.011,346.400 322.807,346.400 321.544 C 346.400 320.281,346.553 319.153,346.739 319.038 C 346.925 318.923,347.116 317.522,347.163 315.927 C 347.209 314.331,347.382 312.839,347.547 312.612 C 347.711 312.386,347.898 310.940,347.962 309.400 C 348.025 307.860,348.219 306.420,348.393 306.200 C 348.567 305.980,348.733 304.464,348.763 302.831 C 348.792 301.198,349.015 299.623,349.257 299.331 C 349.586 298.935,349.563 298.800,349.169 298.800 C 348.758 298.800,348.747 298.693,349.120 298.320 C 349.384 298.056,349.600 296.826,349.600 295.587 C 349.600 294.347,349.735 293.197,349.900 293.031 C 350.213 292.714,350.244 292.483,350.341 289.700 L 350.400 288.000 356.200 288.000 L 362.000 288.000 362.046 289.500 C 362.072 290.325,362.078 291.698,362.059 292.551 C 362.041 293.403,362.213 294.450,362.441 294.876 C 362.669 295.302,362.870 296.803,362.888 298.212 C 362.906 299.620,363.044 300.696,363.196 300.602 C 363.465 300.436,363.618 301.692,363.740 305.066 C 363.773 305.983,363.935 306.868,364.100 307.033 C 364.265 307.198,364.400 308.754,364.400 310.490 C 364.400 312.493,364.546 313.557,364.800 313.400 C 365.045 313.248,365.220 313.974,365.252 315.276 C 365.348 319.212,365.399 319.799,365.686 320.239 C 365.843 320.481,366.002 321.831,366.039 323.239 C 366.075 324.648,366.243 326.070,366.412 326.400 C 366.725 327.010,367.086 330.199,367.455 335.600 C 367.568 337.250,367.827 338.771,368.030 338.980 C 368.234 339.189,368.400 340.638,368.400 342.200 C 368.400 343.762,368.576 345.216,368.791 345.431 C 369.006 345.646,369.209 347.122,369.242 348.711 C 369.275 350.300,369.458 351.600,369.651 351.600 C 369.843 351.600,370.000 352.939,370.000 354.576 C 370.000 356.213,370.180 357.664,370.400 357.800 C 370.620 357.936,370.800 359.376,370.800 361.000 C 370.800 362.624,370.980 364.064,371.200 364.200 C 371.420 364.336,371.603 365.832,371.606 367.524 C 371.610 369.658,371.731 370.416,372.000 370.000 C 372.266 369.589,372.390 370.563,372.394 373.100 C 372.398 375.296,372.563 376.800,372.800 376.800 C 373.026 376.800,373.200 377.933,373.200 379.400 C 373.200 380.830,373.341 382.000,373.514 382.000 C 373.687 382.000,373.844 382.315,373.863 382.700 C 373.882 383.085,373.946 384.705,374.005 386.300 C 374.064 387.895,374.267 389.200,374.456 389.200 C 374.645 389.200,374.800 389.975,374.800 390.921 C 374.800 392.879,376.615 396.961,377.298 396.539 C 377.532 396.395,377.610 396.460,377.471 396.685 C 377.189 397.141,378.513 398.516,378.932 398.201 C 379.080 398.090,379.119 398.111,379.019 398.248 C 378.069 399.548,389.038 400.720,393.801 399.826 C 394.881 399.624,398.499 396.810,397.701 396.794 C 397.535 396.791,397.670 396.617,398.000 396.408 C 398.330 396.200,398.600 395.836,398.600 395.600 C 398.600 395.364,398.870 395.004,399.200 394.800 C 400.231 394.163,400.079 253.386,399.046 252.706 C 398.733 252.500,398.749 252.410,399.100 252.406 C 399.694 252.399,399.774 250.955,399.200 250.600 C 398.960 250.451,398.800 247.738,398.800 243.802 C 398.800 240.200,398.621 236.780,398.401 236.203 C 398.136 235.506,398.136 235.237,398.401 235.401 C 398.919 235.721,398.921 234.681,398.403 234.163 C 398.169 233.929,397.996 230.570,397.981 225.998 C 397.967 221.725,397.794 218.033,397.595 217.794 C 397.397 217.555,397.209 214.601,397.179 211.230 C 397.149 207.859,396.942 204.580,396.720 203.942 C 396.440 203.139,396.449 202.623,396.748 202.262 C 397.018 201.937,397.040 201.600,396.805 201.365 C 396.598 201.158,396.407 197.886,396.381 194.094 C 396.347 189.139,396.202 187.198,395.867 187.194 C 395.600 187.190,395.655 187.026,395.997 186.811 C 396.472 186.510,396.492 186.332,396.097 185.937 C 395.810 185.650,395.600 184.410,395.600 183.000 C 395.600 181.658,395.409 180.369,395.175 180.135 C 394.941 179.901,394.734 179.145,394.714 178.455 C 394.694 177.765,394.526 177.200,394.339 177.200 C 394.153 177.200,394.000 176.874,394.000 176.475 C 394.000 176.076,393.640 175.005,393.200 174.094 C 392.760 173.184,392.400 172.149,392.400 171.796 C 392.400 171.442,392.220 171.264,392.000 171.400 C 391.776 171.538,391.600 171.229,391.600 170.699 C 391.600 170.178,391.251 169.376,390.824 168.918 C 390.397 168.460,390.157 167.976,390.291 167.843 C 390.424 167.709,390.233 167.600,389.867 167.600 C 389.500 167.600,389.200 167.409,389.200 167.176 C 389.200 166.943,389.413 166.884,389.673 167.045 C 390.374 167.479,387.997 164.363,386.711 163.164 C 386.100 162.595,385.598 161.965,385.596 161.764 C 385.594 161.564,385.009 160.950,384.296 160.400 C 383.583 159.850,382.447 158.860,381.771 158.200 C 381.095 157.540,380.296 156.944,379.996 156.875 C 379.696 156.806,379.148 156.401,378.778 155.975 C 378.409 155.549,377.814 155.200,377.456 155.200 C 377.099 155.200,376.582 154.840,376.307 154.400 C 376.032 153.960,375.491 153.600,375.104 153.600 C 374.717 153.600,374.400 153.401,374.400 153.157 C 374.400 152.914,374.123 152.821,373.785 152.950 C 373.435 153.085,373.072 152.931,372.942 152.593 C 372.817 152.267,372.294 152.000,371.781 152.000 C 371.267 152.000,370.736 151.820,370.600 151.600 C 370.464 151.380,369.913 151.200,369.376 151.200 C 368.839 151.200,368.400 151.020,368.400 150.800 C 368.400 150.580,367.781 150.400,367.024 150.400 C 366.267 150.400,365.536 150.220,365.400 150.000 C 365.264 149.780,364.083 149.600,362.776 149.600 C 361.469 149.600,360.400 149.450,360.400 149.266 C 360.400 148.861,352.957 148.881,352.229 149.288 M356.627 159.556 C 356.506 159.753,355.775 159.828,355.003 159.724 C 354.109 159.603,353.600 159.700,353.600 159.991 C 353.600 160.242,353.420 160.336,353.200 160.200 C 352.980 160.064,352.800 160.154,352.800 160.400 C 352.800 160.646,352.618 160.735,352.396 160.598 C 351.834 160.250,350.338 160.776,350.615 161.224 C 350.740 161.426,350.562 161.484,350.221 161.353 C 349.878 161.221,349.600 161.324,349.600 161.581 C 349.600 161.837,349.420 161.936,349.200 161.800 C 348.980 161.664,348.800 161.773,348.800 162.043 C 348.800 162.313,348.683 162.416,348.540 162.273 C 348.397 162.130,347.824 162.505,347.266 163.107 C 346.709 163.708,346.151 164.130,346.026 164.045 C 345.902 163.960,345.598 164.286,345.351 164.770 C 345.103 165.254,344.743 165.614,344.551 165.570 C 344.358 165.526,344.004 165.873,343.764 166.343 C 343.525 166.812,343.210 167.076,343.064 166.931 C 342.919 166.786,342.800 166.977,342.800 167.357 C 342.800 167.737,342.620 167.936,342.400 167.800 C 342.180 167.664,342.000 167.844,342.000 168.200 C 342.000 168.556,341.820 168.736,341.600 168.600 C 341.380 168.464,341.200 168.644,341.200 169.000 C 341.200 169.356,341.020 169.536,340.800 169.400 C 340.580 169.264,340.400 169.444,340.400 169.800 C 340.400 170.156,340.220 170.336,340.000 170.200 C 339.780 170.064,339.600 170.250,339.600 170.614 C 339.600 170.977,339.240 171.369,338.800 171.484 C 338.360 171.599,338.000 171.953,338.000 172.270 C 338.000 172.588,337.865 172.772,337.700 172.680 C 337.304 172.459,334.785 175.052,335.094 175.361 C 335.226 175.492,335.127 175.600,334.874 175.600 C 334.621 175.600,333.784 176.185,333.014 176.900 C 332.243 177.615,330.911 178.830,330.052 179.600 C 329.194 180.370,328.572 181.135,328.669 181.300 C 328.767 181.465,328.556 181.600,328.200 181.600 C 327.844 181.600,327.664 181.780,327.800 182.000 C 327.936 182.220,327.767 182.400,327.424 182.400 C 327.081 182.400,326.797 182.535,326.793 182.700 C 326.782 183.157,322.930 187.200,322.505 187.200 C 322.300 187.200,321.651 187.740,321.063 188.400 C 320.475 189.060,319.805 189.600,319.573 189.600 C 319.342 189.600,319.264 189.780,319.400 190.000 C 319.536 190.220,319.448 190.400,319.205 190.400 C 318.610 190.400,316.800 192.242,316.800 192.848 C 316.800 193.115,316.699 193.232,316.576 193.109 C 316.299 192.832,312.600 196.279,312.600 196.814 C 312.600 197.026,312.480 197.155,312.332 197.100 C 312.185 197.045,311.575 197.450,310.977 198.000 C 310.237 198.681,309.833 198.841,309.712 198.500 C 309.614 198.225,309.280 198.000,308.971 198.000 C 308.662 198.000,308.042 197.685,307.594 197.300 C 306.712 196.543,304.404 195.103,302.800 194.311 C 302.250 194.039,301.710 193.705,301.600 193.568 C 301.288 193.181,299.465 192.249,298.807 192.141 C 298.481 192.087,298.151 191.854,298.074 191.622 C 297.997 191.390,297.668 191.200,297.343 191.200 C 297.018 191.200,296.864 191.020,297.000 190.800 C 297.136 190.580,296.969 190.400,296.628 190.400 C 296.288 190.400,295.641 190.085,295.192 189.700 C 294.742 189.315,294.200 188.978,293.987 188.950 C 293.774 188.923,293.409 188.878,293.176 188.850 C 292.943 188.822,292.867 188.616,293.006 188.390 C 293.145 188.165,293.111 188.020,292.930 188.069 C 292.261 188.250,290.800 187.530,290.800 187.020 C 290.800 186.730,290.485 186.393,290.100 186.271 C 289.219 185.992,287.080 184.709,286.755 184.266 C 286.621 184.082,286.396 183.947,286.255 183.966 C 285.473 184.071,285.178 183.959,285.379 183.635 C 285.503 183.434,285.064 183.030,284.402 182.737 C 283.741 182.444,283.200 182.107,283.200 181.987 C 283.200 181.868,282.819 181.742,282.353 181.706 C 281.886 181.671,281.246 181.273,280.930 180.821 C 280.614 180.370,280.095 180.000,279.777 180.000 C 279.460 180.000,279.200 179.839,279.200 179.643 C 279.200 179.446,278.921 179.178,278.579 179.047 C 278.174 178.892,278.040 178.982,278.194 179.305 C 278.324 179.577,278.212 179.505,277.945 179.145 C 277.562 178.627,277.228 178.571,276.349 178.878 C 275.437 179.196,275.076 179.115,274.343 178.433 C 273.851 177.975,273.213 177.600,272.925 177.600 C 272.636 177.600,272.400 177.420,272.400 177.200 C 272.400 176.980,272.164 176.800,271.875 176.800 C 271.587 176.800,270.964 176.440,270.492 176.000 C 270.020 175.560,269.448 175.200,269.221 175.200 C 268.995 175.200,268.442 174.885,267.993 174.500 C 266.965 173.618,263.924 171.814,261.686 170.759 C 258.103 169.069,252.580 169.757,249.469 172.282 C 248.686 172.918,248.044 173.126,247.379 172.959 C 246.614 172.767,246.324 172.929,245.946 173.759 C 245.685 174.332,245.320 174.800,245.136 174.800 C 244.951 174.800,244.800 175.250,244.800 175.800 C 244.800 176.350,244.618 176.800,244.396 176.800 C 244.168 176.800,244.068 177.411,244.167 178.205 C 244.263 178.978,244.194 179.520,244.014 179.409 C 243.835 179.298,243.562 179.875,243.409 180.692 C 243.245 181.565,243.292 182.231,243.523 182.308 C 243.739 182.380,243.816 182.818,243.695 183.282 C 243.565 183.778,243.635 184.026,243.865 183.884 C 244.096 183.741,244.189 184.097,244.092 184.757 C 243.999 185.388,244.174 186.117,244.496 186.439 C 244.809 186.752,244.990 187.230,244.899 187.503 C 244.808 187.776,245.017 188.109,245.364 188.242 C 245.711 188.375,245.908 188.625,245.801 188.798 C 245.544 189.215,250.875 194.000,251.597 194.000 C 251.818 194.000,252.000 194.191,252.000 194.424 C 252.000 194.657,252.180 194.736,252.400 194.600 C 252.620 194.464,252.814 194.678,252.832 195.076 C 252.849 195.474,252.950 195.586,253.056 195.325 C 253.255 194.837,253.926 195.253,255.760 197.000 C 256.222 197.440,256.690 197.801,256.800 197.803 C 257.254 197.810,258.778 199.089,258.575 199.292 C 258.453 199.413,259.080 199.847,259.967 200.256 C 260.854 200.665,261.584 201.225,261.590 201.500 C 261.595 201.775,261.870 202.000,262.200 202.000 C 262.530 202.000,262.800 202.191,262.800 202.424 C 262.800 202.657,262.980 202.736,263.200 202.600 C 263.420 202.464,263.600 202.509,263.600 202.699 C 263.600 202.890,264.425 203.627,265.433 204.338 C 266.441 205.048,267.147 205.398,267.003 205.115 C 266.859 204.832,267.024 204.949,267.370 205.376 C 267.717 205.804,268.000 206.030,268.000 205.880 C 268.000 205.730,268.514 206.146,269.143 206.804 C 269.772 207.462,270.500 208.000,270.761 208.000 C 271.023 208.000,271.678 208.441,272.217 208.981 C 272.756 209.520,273.827 210.260,274.595 210.625 C 275.364 210.989,275.894 211.448,275.773 211.644 C 275.652 211.840,275.833 212.000,276.176 212.000 C 276.519 212.000,276.800 212.180,276.800 212.400 C 276.800 212.620,277.068 212.800,277.397 212.800 C 277.725 212.800,278.218 213.160,278.493 213.600 C 278.768 214.040,279.339 214.400,279.763 214.400 C 280.187 214.400,280.422 214.511,280.286 214.648 C 279.974 214.959,280.986 216.000,281.600 216.000 C 281.851 216.000,282.308 216.225,282.615 216.500 C 283.973 217.718,284.400 218.011,284.400 217.727 C 284.400 217.559,284.680 217.822,285.023 218.311 C 285.365 218.800,285.865 219.200,286.134 219.200 C 286.402 219.200,286.920 219.515,287.283 219.900 C 288.333 221.012,289.200 221.658,289.200 221.327 C 289.200 221.159,289.482 221.425,289.827 221.918 C 290.172 222.410,290.600 222.724,290.777 222.614 C 290.954 222.505,291.576 222.857,292.159 223.397 C 292.742 223.937,293.305 224.384,293.410 224.390 C 293.514 224.395,293.791 224.400,294.024 224.400 C 294.257 224.400,294.365 224.535,294.266 224.700 C 294.033 225.084,295.037 226.029,295.348 225.719 C 295.476 225.590,295.694 225.780,295.832 226.140 C 295.971 226.501,296.246 226.695,296.445 226.572 C 296.643 226.450,296.914 226.631,297.046 226.975 C 297.178 227.319,297.547 227.600,297.866 227.600 C 298.186 227.600,298.336 227.780,298.200 228.000 C 298.064 228.220,298.233 228.400,298.576 228.400 C 298.919 228.400,299.200 228.580,299.200 228.800 C 299.200 229.020,299.468 229.200,299.797 229.200 C 300.125 229.200,300.618 229.560,300.893 230.000 C 301.168 230.440,301.709 230.800,302.096 230.800 C 302.483 230.800,302.800 230.980,302.800 231.200 C 302.800 231.420,303.081 231.600,303.424 231.600 C 303.767 231.600,303.936 231.780,303.800 232.000 C 303.658 232.229,304.018 232.400,304.643 232.400 C 305.243 232.400,305.616 232.517,305.473 232.661 C 305.140 232.993,307.057 234.000,308.022 234.000 C 308.424 234.000,308.870 234.190,309.013 234.421 C 309.311 234.903,316.355 234.797,316.657 234.307 C 316.762 234.138,317.287 234.000,317.824 234.000 C 318.361 234.000,318.800 233.820,318.800 233.600 C 318.800 233.380,319.141 233.200,319.557 233.200 C 319.974 233.200,320.428 232.904,320.567 232.543 C 320.705 232.181,320.920 231.986,321.043 232.110 C 321.274 232.341,321.814 231.938,324.273 229.700 C 325.058 228.985,325.948 228.400,326.250 228.400 C 326.553 228.400,326.800 228.124,326.800 227.787 C 326.800 227.451,327.115 227.055,327.500 226.908 C 328.208 226.637,328.683 226.300,329.919 225.188 C 330.294 224.851,331.089 224.329,331.686 224.027 C 332.284 223.726,332.678 223.327,332.563 223.140 C 332.376 222.838,332.687 222.731,333.455 222.834 C 333.596 222.853,333.821 222.716,333.955 222.530 C 334.090 222.345,334.920 221.720,335.800 221.143 C 336.680 220.566,338.390 219.174,339.600 218.049 C 340.810 216.925,342.115 216.004,342.500 216.002 C 342.885 216.001,343.200 215.719,343.200 215.376 C 343.200 215.033,343.347 214.844,343.527 214.955 C 343.707 215.066,344.107 214.807,344.415 214.379 C 344.724 213.950,345.192 213.600,345.454 213.600 C 345.717 213.600,346.442 213.060,347.065 212.400 C 347.688 211.740,348.396 211.200,348.639 211.200 C 348.882 211.200,349.646 210.660,350.337 210.000 C 351.028 209.340,351.785 208.800,352.020 208.800 C 352.255 208.800,352.336 208.620,352.200 208.400 C 351.983 208.049,352.236 207.936,353.030 208.026 C 353.157 208.041,353.583 207.681,353.977 207.226 C 354.371 206.772,354.903 206.400,355.159 206.400 C 355.416 206.400,355.729 206.130,355.855 205.800 C 355.982 205.470,356.271 205.200,356.497 205.200 C 356.723 205.200,357.315 204.761,357.812 204.225 C 358.309 203.688,358.820 203.353,358.946 203.480 C 359.073 203.606,359.677 203.190,360.288 202.555 C 360.900 201.920,361.889 201.148,362.486 200.840 C 363.084 200.532,363.496 200.155,363.401 200.002 C 363.307 199.850,363.898 199.364,364.715 198.923 C 365.532 198.481,366.155 197.913,366.100 197.660 C 366.045 197.407,366.135 197.221,366.300 197.247 C 367.097 197.373,367.622 197.160,367.400 196.800 C 367.264 196.580,367.433 196.400,367.776 196.400 C 368.119 196.400,368.400 196.220,368.400 196.000 C 368.400 195.780,368.670 195.600,369.000 195.600 C 369.330 195.600,369.600 195.420,369.600 195.200 C 369.600 194.980,369.786 194.800,370.013 194.800 C 370.592 194.800,373.199 192.133,372.907 191.840 C 372.775 191.708,372.893 191.600,373.169 191.600 C 373.770 191.600,375.168 190.007,375.187 189.300 C 375.194 189.025,375.380 188.800,375.600 188.800 C 375.820 188.800,376.000 188.440,376.000 188.000 C 376.000 187.560,376.180 187.200,376.400 187.200 C 376.620 187.200,376.800 186.671,376.800 186.024 C 376.800 185.377,376.980 184.736,377.200 184.600 C 377.420 184.464,377.600 183.913,377.600 183.376 C 377.600 182.839,377.789 182.400,378.021 182.400 C 378.288 182.400,378.414 181.158,378.366 179.000 C 378.325 177.130,378.136 175.600,377.946 175.600 C 377.756 175.600,377.600 174.880,377.600 174.000 C 377.600 173.120,377.420 172.400,377.200 172.400 C 376.980 172.400,376.800 171.860,376.800 171.200 C 376.800 170.540,376.620 170.000,376.400 170.000 C 376.180 170.000,376.000 169.775,376.000 169.500 C 375.999 169.225,375.549 168.477,375.000 167.838 C 374.450 167.199,374.000 166.523,374.000 166.337 C 374.000 165.735,371.039 163.128,369.700 162.550 C 368.985 162.242,368.400 161.812,368.400 161.595 C 368.400 161.378,368.158 161.200,367.861 161.200 C 367.565 161.200,366.715 160.897,365.972 160.526 C 365.229 160.156,363.754 159.818,362.694 159.776 C 361.633 159.734,360.654 159.587,360.516 159.450 C 360.131 159.065,356.875 159.154,356.627 159.556 M312.290 344.893 C 312.201 345.612,312.126 345.120,312.124 343.800 C 312.122 342.480,312.195 341.892,312.286 342.493 C 312.377 343.094,312.379 344.174,312.290 344.893 " stroke="none" fill="gray" fill-rule="evenodd"></path><path id="path2" d="M35.800 62.400 C 35.664 62.620,34.944 62.800,34.200 62.800 C 33.456 62.800,32.736 62.980,32.600 63.200 C 32.464 63.420,31.924 63.600,31.400 63.600 C 30.876 63.600,30.336 63.780,30.200 64.000 C 30.064 64.220,29.603 64.400,29.176 64.400 C 28.749 64.400,28.400 64.580,28.400 64.800 C 28.400 65.020,28.166 65.200,27.880 65.200 C 27.144 65.200,25.207 66.141,25.203 66.500 C 25.201 66.665,24.930 66.800,24.600 66.800 C 24.270 66.800,24.000 66.980,24.000 67.200 C 24.000 67.420,23.680 67.600,23.288 67.600 C 22.897 67.600,22.317 67.960,22.000 68.400 C 21.683 68.840,21.190 69.200,20.904 69.200 C 20.421 69.200,15.200 74.135,15.200 74.593 C 15.200 74.707,15.875 74.804,16.700 74.810 C 21.832 74.843,24.800 77.217,24.800 81.286 C 24.800 86.196,22.133 87.694,13.699 87.524 L 7.599 87.400 7.599 88.500 C 7.600 89.105,7.420 89.600,7.200 89.600 C 6.980 89.600,6.800 90.140,6.800 90.800 C 6.800 91.460,6.642 92.000,6.449 92.000 C 6.256 92.000,6.068 93.771,6.031 95.936 L 5.963 99.872 57.619 100.109 L 109.275 100.346 111.038 98.583 L 112.800 96.821 112.800 93.211 C 112.800 91.225,112.664 89.600,112.498 89.600 C 112.331 89.600,111.956 89.060,111.664 88.400 C 111.341 87.669,110.833 87.200,110.366 87.200 C 109.945 87.200,109.600 87.020,109.600 86.800 C 109.600 86.580,109.240 86.400,108.800 86.400 C 108.360 86.400,108.000 86.220,108.000 86.000 C 108.000 85.780,107.010 85.600,105.800 85.600 C 104.590 85.600,103.600 85.420,103.600 85.200 C 103.600 84.980,102.711 84.800,101.624 84.800 C 100.537 84.800,99.536 84.620,99.400 84.400 C 99.264 84.180,98.073 84.000,96.753 84.000 C 95.255 84.000,94.446 83.850,94.600 83.600 C 94.753 83.352,94.012 83.200,92.647 83.200 C 91.437 83.200,90.336 83.020,90.200 82.800 C 90.064 82.580,88.973 82.400,87.776 82.400 C 86.579 82.400,85.600 82.220,85.600 82.000 C 85.600 81.780,84.711 81.600,83.624 81.600 C 82.537 81.600,81.536 81.420,81.400 81.200 C 81.264 80.980,80.204 80.800,79.044 80.800 C 77.148 80.800,76.878 80.689,76.368 79.700 C 76.055 79.095,75.575 78.362,75.300 78.071 C 75.025 77.781,74.800 77.383,74.800 77.189 C 74.800 76.694,68.057 70.000,67.559 70.000 C 67.336 70.000,67.264 69.820,67.400 69.600 C 67.536 69.380,67.401 69.200,67.099 69.200 C 66.798 69.200,66.164 68.840,65.692 68.400 C 65.220 67.960,64.596 67.600,64.305 67.600 C 64.014 67.600,63.517 67.240,63.200 66.800 C 62.883 66.360,62.303 66.000,61.912 66.000 C 61.520 66.000,61.200 65.820,61.200 65.600 C 61.200 65.380,60.928 65.200,60.595 65.200 C 60.262 65.200,59.632 65.020,59.195 64.800 C 58.758 64.580,58.042 64.220,57.605 64.000 C 57.168 63.780,56.459 63.600,56.029 63.600 C 55.599 63.600,55.136 63.420,55.000 63.200 C 54.864 62.980,54.144 62.800,53.400 62.800 C 52.656 62.800,51.936 62.620,51.800 62.400 C 51.649 62.156,48.537 62.000,43.800 62.000 C 39.063 62.000,35.951 62.156,35.800 62.400 M38.800 150.000 C 38.800 150.222,37.733 150.400,36.400 150.400 C 35.067 150.400,34.000 150.578,34.000 150.800 C 34.000 151.020,33.381 151.200,32.624 151.200 C 31.867 151.200,31.136 151.380,31.000 151.600 C 30.864 151.820,30.403 152.000,29.976 152.000 C 29.549 152.000,29.200 152.180,29.200 152.400 C 29.200 152.620,28.876 152.800,28.480 152.800 C 27.586 152.800,25.607 153.694,25.603 154.100 C 25.601 154.265,25.240 154.400,24.800 154.400 C 24.360 154.400,24.000 154.580,24.000 154.800 C 24.000 155.020,23.764 155.200,23.475 155.200 C 23.187 155.200,22.564 155.560,22.092 156.000 C 21.620 156.440,21.091 156.800,20.917 156.800 C 20.743 156.801,20.060 157.266,19.400 157.834 C 18.740 158.402,17.683 159.257,17.052 159.734 C 16.420 160.210,15.610 160.950,15.252 161.377 C 14.893 161.805,14.015 162.747,13.300 163.470 C 12.585 164.194,12.000 164.980,12.000 165.217 C 12.000 165.453,11.820 165.536,11.600 165.400 C 11.380 165.264,11.200 165.351,11.200 165.592 C 11.200 165.834,10.570 166.967,9.800 168.110 C 9.030 169.254,8.400 170.507,8.400 170.895 C 8.400 171.283,8.220 171.600,8.000 171.600 C 7.780 171.600,7.600 171.960,7.600 172.400 C 7.600 172.840,7.420 173.200,7.200 173.200 C 6.980 173.200,6.800 173.639,6.800 174.176 C 6.800 174.713,6.620 175.264,6.400 175.400 C 6.180 175.536,6.000 176.087,6.000 176.624 C 6.000 177.161,5.820 177.600,5.600 177.600 C 5.380 177.600,5.200 178.320,5.200 179.200 C 5.200 180.080,5.020 180.800,4.800 180.800 C 4.578 180.800,4.400 181.859,4.400 183.176 C 4.400 184.483,4.220 185.664,4.000 185.800 C 3.757 185.950,3.600 188.930,3.600 193.400 C 3.600 197.870,3.443 200.850,3.200 201.000 C 2.954 201.152,2.800 204.404,2.800 209.424 C 2.800 214.608,2.654 217.600,2.400 217.600 C 2.146 217.600,2.000 220.600,2.000 225.800 C 2.000 231.000,1.854 234.000,1.600 234.000 C 1.346 234.000,1.200 236.989,1.200 242.167 C 1.200 248.344,1.078 250.374,0.700 250.500 C -0.035 250.745,-0.035 393.654,0.700 393.900 C 0.975 393.992,1.200 394.422,1.200 394.857 C 1.200 395.292,1.380 395.536,1.600 395.400 C 1.820 395.264,2.000 395.349,2.000 395.590 C 2.000 396.235,4.679 398.800,5.353 398.800 C 5.672 398.800,6.008 399.025,6.100 399.300 C 6.339 400.018,18.861 400.018,19.100 399.300 C 19.192 399.025,19.536 398.800,19.865 398.800 C 21.541 398.800,25.200 393.345,25.200 390.846 C 25.200 390.186,25.380 389.536,25.600 389.400 C 25.820 389.264,26.000 387.813,26.000 386.176 C 26.000 384.459,26.169 383.200,26.400 383.200 C 26.633 383.200,26.800 381.867,26.800 380.000 C 26.800 378.133,26.967 376.800,27.200 376.800 C 27.436 376.800,27.600 375.392,27.600 373.376 C 27.600 371.493,27.753 370.047,27.940 370.163 C 28.127 370.278,28.317 369.074,28.362 367.486 C 28.408 365.899,28.615 364.429,28.823 364.220 C 29.030 364.011,29.200 362.436,29.200 360.720 C 29.200 358.907,29.368 357.600,29.600 357.600 C 29.833 357.600,30.000 356.267,30.000 354.400 C 30.000 352.533,30.167 351.200,30.400 351.200 C 30.633 351.200,30.800 349.867,30.800 348.000 C 30.800 346.133,30.967 344.800,31.200 344.800 C 31.431 344.800,31.600 343.541,31.600 341.824 C 31.600 340.187,31.780 338.736,32.000 338.600 C 32.220 338.464,32.400 337.049,32.400 335.456 C 32.400 333.863,32.563 332.389,32.762 332.180 C 33.094 331.831,33.226 330.611,33.850 322.100 C 33.967 320.505,34.229 319.200,34.432 319.200 C 34.634 319.200,34.779 319.065,34.753 318.900 C 34.519 317.422,34.876 312.400,35.200 312.600 C 35.454 312.757,35.600 311.693,35.600 309.690 C 35.600 307.954,35.735 306.398,35.900 306.233 C 36.283 305.851,36.290 305.782,36.350 302.176 C 36.381 300.274,36.548 299.244,36.800 299.400 C 37.054 299.557,37.200 298.479,37.200 296.447 C 37.200 294.687,37.380 293.136,37.600 293.000 C 37.820 292.864,38.000 291.683,38.000 290.376 L 38.000 288.000 43.800 288.000 L 49.600 288.000 49.600 291.576 C 49.600 293.543,49.780 295.264,50.000 295.400 C 50.220 295.536,50.400 296.976,50.400 298.600 C 50.400 300.224,50.580 301.664,50.800 301.800 C 51.020 301.936,51.200 303.387,51.200 305.024 C 51.200 306.741,51.369 308.000,51.600 308.000 C 51.833 308.000,52.000 309.333,52.000 311.200 C 52.000 313.067,52.167 314.400,52.400 314.400 C 52.631 314.400,52.800 315.659,52.800 317.376 C 52.800 319.013,52.980 320.464,53.200 320.600 C 53.420 320.736,53.600 322.187,53.600 323.824 C 53.600 325.541,53.769 326.800,54.000 326.800 C 54.233 326.800,54.400 328.133,54.400 330.000 C 54.400 331.867,54.567 333.200,54.800 333.200 C 55.031 333.200,55.200 334.459,55.200 336.176 C 55.200 337.813,55.380 339.264,55.600 339.400 C 55.820 339.536,56.000 340.987,56.000 342.624 C 56.000 344.341,56.169 345.600,56.400 345.600 C 56.633 345.600,56.800 346.933,56.800 348.800 C 56.800 350.667,56.967 352.000,57.200 352.000 C 57.431 352.000,57.600 353.267,57.600 355.000 C 57.600 356.733,57.769 358.000,58.000 358.000 C 58.233 358.000,58.400 359.311,58.400 361.133 C 58.400 362.857,58.509 364.375,58.641 364.508 C 58.774 364.640,58.940 365.885,59.011 367.275 C 59.276 372.468,59.690 376.212,60.039 376.580 C 60.238 376.789,60.400 378.238,60.400 379.800 C 60.400 381.362,60.572 382.812,60.783 383.023 C 60.994 383.234,61.199 384.715,61.240 386.314 C 61.280 387.914,61.468 389.318,61.656 389.435 C 61.845 389.552,62.000 390.447,62.000 391.424 C 62.000 392.401,62.180 393.200,62.400 393.200 C 62.620 393.200,62.800 393.560,62.800 394.000 C 62.800 394.440,62.980 394.800,63.200 394.800 C 63.420 394.800,63.600 395.075,63.600 395.411 C 63.600 395.746,64.450 396.871,65.489 397.911 L 67.379 399.800 75.000 399.800 L 82.621 399.800 84.511 397.911 C 85.550 396.871,86.400 395.746,86.400 395.411 C 86.400 395.075,86.580 394.800,86.800 394.800 C 87.020 394.800,87.200 394.455,87.200 394.033 C 87.200 393.612,87.406 393.198,87.658 393.114 C 87.991 393.003,88.127 388.279,88.158 375.719 C 88.181 366.236,88.335 358.560,88.500 358.662 C 88.665 358.764,88.800 347.666,88.800 334.000 C 88.800 320.334,88.655 309.242,88.478 309.352 C 88.301 309.461,88.107 300.794,88.047 290.092 C 87.986 279.201,87.776 270.329,87.569 269.942 C 87.366 269.563,87.200 265.831,87.200 261.650 C 87.200 257.013,87.044 253.951,86.800 253.800 C 86.580 253.664,86.400 253.203,86.400 252.776 C 86.400 252.184,86.121 252.000,85.224 252.000 C 84.577 252.000,83.936 251.820,83.800 251.600 C 83.664 251.380,82.933 251.200,82.176 251.200 C 81.419 251.200,80.800 251.020,80.800 250.800 C 80.800 250.580,80.440 250.400,80.000 250.400 C 79.560 250.400,79.200 250.220,79.200 250.000 C 79.200 249.780,78.840 249.600,78.400 249.600 C 77.960 249.600,77.600 249.420,77.600 249.200 C 77.600 248.980,77.322 248.800,76.982 248.800 C 76.642 248.800,75.938 248.395,75.419 247.900 C 74.899 247.405,73.544 246.190,72.407 245.200 C 71.270 244.210,69.640 242.725,68.785 241.900 C 67.931 241.075,67.036 240.400,66.799 240.400 C 66.561 240.400,64.978 239.005,63.282 237.300 C 61.586 235.595,59.704 233.945,59.099 233.632 C 58.495 233.320,58.000 232.943,58.000 232.794 C 58.000 232.250,54.960 229.380,51.226 226.400 C 50.262 225.630,48.487 224.055,47.282 222.900 C 46.078 221.745,44.933 220.800,44.738 220.800 C 44.543 220.800,42.992 219.449,41.292 217.797 C 35.367 212.043,34.482 211.251,34.242 211.492 C 34.109 211.625,33.999 211.478,33.999 211.167 C 33.998 210.855,33.459 210.240,32.800 209.800 C 32.141 209.360,31.602 208.865,31.601 208.700 C 31.601 208.535,31.321 208.400,30.981 208.400 C 29.597 208.400,22.507 200.353,21.729 197.900 C 21.607 197.515,21.348 197.200,21.153 197.200 C 20.959 197.200,20.800 196.761,20.800 196.224 C 20.800 195.687,20.620 195.136,20.400 195.000 C 20.180 194.864,20.000 194.313,20.000 193.776 C 20.000 193.239,19.820 192.800,19.600 192.800 C 19.380 192.800,19.200 191.821,19.200 190.624 C 19.200 189.427,19.020 188.336,18.800 188.200 C 18.281 187.879,18.281 185.721,18.800 185.400 C 19.020 185.264,19.200 184.173,19.200 182.976 C 19.200 181.779,19.380 180.800,19.600 180.800 C 19.820 180.800,20.000 180.260,20.000 179.600 C 20.000 178.940,20.210 178.400,20.467 178.400 C 20.723 178.400,20.820 178.287,20.682 178.149 C 19.827 177.293,26.992 167.600,28.480 167.600 C 28.779 167.600,29.283 167.240,29.600 166.800 C 29.917 166.360,30.497 166.000,30.888 166.000 C 31.280 166.000,31.600 165.820,31.600 165.600 C 31.600 165.380,31.960 165.200,32.400 165.200 C 32.840 165.200,33.200 165.020,33.200 164.800 C 33.200 164.580,33.560 164.400,34.000 164.400 C 34.440 164.400,34.800 164.220,34.800 164.000 C 34.800 163.780,35.340 163.600,36.000 163.600 C 36.660 163.600,37.200 163.420,37.200 163.200 C 37.200 162.952,39.325 162.800,42.776 162.800 C 46.063 162.800,48.454 162.964,48.600 163.200 C 48.736 163.420,49.377 163.600,50.024 163.600 C 50.671 163.600,51.200 163.780,51.200 164.000 C 51.200 164.220,51.560 164.400,52.000 164.400 C 52.440 164.400,52.800 164.580,52.800 164.800 C 52.800 165.020,53.160 165.200,53.600 165.200 C 54.040 165.200,54.400 165.380,54.400 165.600 C 54.400 165.820,54.720 166.000,55.112 166.000 C 55.503 166.000,56.083 166.360,56.400 166.800 C 56.717 167.240,57.189 167.600,57.448 167.600 C 57.708 167.600,58.550 168.230,59.320 169.000 C 60.090 169.770,60.651 170.400,60.566 170.400 C 60.362 170.400,62.733 172.972,66.300 176.621 C 67.895 178.252,69.200 179.756,69.200 179.963 C 69.200 180.170,70.415 181.575,71.900 183.087 C 73.385 184.598,75.315 186.727,76.188 187.817 C 78.670 190.917,82.660 194.800,83.363 194.800 C 84.110 194.800,84.335 186.254,83.600 185.800 C 83.380 185.664,83.200 184.483,83.200 183.176 C 83.200 181.859,83.022 180.800,82.800 180.800 C 82.580 180.800,82.400 180.080,82.400 179.200 C 82.400 178.320,82.220 177.600,82.000 177.600 C 81.780 177.600,81.600 177.150,81.600 176.600 C 81.600 176.050,81.420 175.600,81.200 175.600 C 80.980 175.600,80.800 175.060,80.800 174.400 C 80.800 173.740,80.620 173.200,80.400 173.200 C 80.180 173.200,80.000 172.840,80.000 172.400 C 80.000 171.960,79.820 171.600,79.600 171.600 C 79.380 171.600,79.200 171.322,79.200 170.983 C 79.200 170.644,78.840 169.980,78.400 169.508 C 77.960 169.036,77.600 168.413,77.600 168.125 C 77.600 167.836,77.420 167.600,77.200 167.600 C 76.980 167.600,76.800 167.330,76.800 167.000 C 76.800 166.670,76.620 166.400,76.400 166.400 C 76.180 166.400,76.000 166.207,76.000 165.971 C 76.000 165.736,75.775 165.315,75.500 165.037 C 75.225 164.759,74.370 163.754,73.600 162.805 C 72.318 161.224,67.165 156.800,66.605 156.800 C 66.474 156.800,65.980 156.440,65.508 156.000 C 65.036 155.560,64.413 155.200,64.125 155.200 C 63.836 155.200,63.600 155.020,63.600 154.800 C 63.600 154.580,63.240 154.400,62.800 154.400 C 62.360 154.400,62.000 154.220,62.000 154.000 C 62.000 153.780,61.640 153.600,61.200 153.600 C 60.760 153.600,60.400 153.420,60.400 153.200 C 60.400 152.980,59.961 152.800,59.424 152.800 C 58.887 152.800,58.336 152.620,58.200 152.400 C 58.064 152.180,57.603 152.000,57.176 152.000 C 56.749 152.000,56.400 151.820,56.400 151.600 C 56.400 151.380,55.781 151.200,55.024 151.200 C 54.267 151.200,53.536 151.020,53.400 150.800 C 53.264 150.580,52.173 150.400,50.976 150.400 C 49.779 150.400,48.800 150.220,48.800 150.000 C 48.800 149.755,46.867 149.600,43.800 149.600 C 40.733 149.600,38.800 149.755,38.800 150.000 M38.800 168.000 C 38.800 168.220,38.371 168.400,37.846 168.400 C 37.321 168.400,36.389 168.661,35.774 168.980 C 35.160 169.298,34.509 169.468,34.329 169.356 C 34.148 169.244,34.000 169.343,34.000 169.576 C 34.000 169.809,33.758 170.000,33.463 170.000 C 31.306 170.000,24.814 178.472,24.804 181.300 C 24.802 181.905,24.620 182.400,24.400 182.400 C 24.157 182.400,24.000 184.200,24.000 187.000 C 24.000 189.530,24.156 191.600,24.346 191.600 C 24.536 191.600,24.799 192.365,24.930 193.300 C 25.187 195.136,26.016 197.192,26.500 197.197 C 26.665 197.199,26.800 197.461,26.800 197.780 C 26.800 198.099,27.115 198.544,27.500 198.768 C 27.885 198.992,28.047 199.181,27.861 199.188 C 27.338 199.207,34.868 206.368,35.682 206.626 C 36.077 206.751,36.400 207.052,36.400 207.294 C 36.400 207.535,36.509 207.624,36.643 207.491 C 36.776 207.357,38.126 208.506,39.643 210.043 C 41.159 211.581,42.400 212.716,42.400 212.566 C 42.400 212.416,43.374 213.307,44.565 214.546 C 45.756 215.786,46.956 216.800,47.232 216.800 C 47.508 216.800,47.617 216.917,47.474 217.059 C 47.094 217.440,48.831 218.828,49.313 218.530 C 49.549 218.384,49.602 218.473,49.438 218.738 C 49.281 218.992,49.319 219.200,49.523 219.200 C 49.726 219.200,50.890 220.145,52.110 221.300 C 56.096 225.076,57.218 226.000,57.813 226.000 C 58.136 226.000,58.400 226.181,58.400 226.403 C 58.400 227.031,63.199 231.600,63.859 231.600 C 64.182 231.600,64.336 231.780,64.200 232.000 C 64.064 232.220,64.139 232.400,64.366 232.400 C 64.594 232.400,66.161 233.754,67.848 235.409 C 69.535 237.064,70.987 238.346,71.074 238.260 C 71.160 238.173,72.005 238.844,72.951 239.751 C 75.845 242.525,77.563 244.000,77.901 244.000 C 78.078 244.000,78.483 244.360,78.800 244.800 C 79.117 245.240,79.697 245.600,80.088 245.600 C 80.480 245.600,80.800 245.780,80.800 246.000 C 80.800 246.220,81.340 246.400,82.000 246.400 C 82.660 246.400,83.200 246.580,83.200 246.800 C 83.200 247.431,87.078 247.296,87.323 246.656 C 87.482 246.242,89.178 246.050,94.466 245.848 C 98.280 245.702,105.990 245.402,111.600 245.181 C 117.210 244.961,126.210 244.607,131.600 244.396 C 136.990 244.184,144.730 243.912,148.800 243.790 C 162.882 243.370,167.761 240.130,167.761 231.200 C 167.761 222.431,163.178 219.292,149.600 218.761 C 145.090 218.584,136.540 218.253,130.600 218.023 C 124.660 217.794,115.390 217.432,110.000 217.218 C 104.610 217.004,98.955 216.822,97.434 216.814 L 94.668 216.800 92.692 214.700 C 88.503 210.246,87.200 208.523,87.200 207.435 C 87.200 206.644,86.558 205.726,84.800 204.000 C 83.480 202.704,82.400 201.467,82.400 201.249 C 82.400 201.032,80.960 199.401,79.200 197.624 C 77.440 195.848,76.000 194.301,76.000 194.186 C 76.000 193.938,74.015 191.695,71.795 189.434 C 70.912 188.535,69.746 187.170,69.203 186.400 C 68.661 185.630,66.998 183.794,65.509 182.319 C 64.019 180.845,62.800 179.439,62.800 179.196 C 62.800 178.952,62.620 178.864,62.400 179.000 C 62.180 179.136,62.000 178.982,62.000 178.657 C 62.000 178.120,60.569 176.591,58.039 174.423 C 57.510 173.971,57.201 173.600,57.352 173.600 C 57.503 173.600,56.997 172.970,56.227 172.200 C 55.457 171.430,54.551 170.800,54.213 170.800 C 53.876 170.800,53.600 170.664,53.600 170.498 C 53.600 170.331,53.015 169.960,52.300 169.671 C 51.585 169.383,50.687 168.979,50.305 168.774 C 49.923 168.568,49.248 168.400,48.805 168.400 C 48.362 168.400,48.000 168.220,48.000 168.000 C 48.000 167.757,46.200 167.600,43.400 167.600 C 40.600 167.600,38.800 167.757,38.800 168.000 M311.328 317.200 C 311.328 318.630,311.401 319.215,311.489 318.500 C 311.578 317.785,311.578 316.615,311.489 315.900 C 311.401 315.185,311.328 315.770,311.328 317.200 M311.379 349.000 C 311.379 356.260,311.433 359.286,311.499 355.725 C 311.565 352.164,311.566 346.224,311.499 342.525 C 311.433 338.826,311.379 341.740,311.379 349.000 " stroke="none" fill="gray" fill-rule="evenodd"></path><path id="path3" d="M196.896 13.598 C 195.414 14.502,194.004 16.582,194.001 17.867 C 193.999 19.402,193.574 19.930,191.467 21.015 C 175.239 29.366,180.207 53.963,198.529 55.982 C 207.018 56.917,209.441 64.424,202.505 68.300 C 201.877 68.651,199.315 68.802,193.905 68.807 C 184.789 68.814,183.720 69.148,182.056 72.503 C 179.630 77.395,183.104 81.200,189.997 81.200 C 193.107 81.200,193.655 81.300,193.832 81.900 C 195.853 88.734,205.988 88.879,205.999 82.074 C 206.000 80.951,206.676 79.600,207.236 79.600 C 209.020 79.600,214.800 74.189,216.277 71.136 C 218.006 67.566,218.200 66.653,218.183 62.200 C 218.145 52.375,211.499 45.148,201.471 44.025 C 192.980 43.074,190.561 35.576,197.495 31.700 C 198.123 31.349,200.685 31.198,206.095 31.193 C 215.211 31.186,216.280 30.852,217.944 27.497 C 220.370 22.605,216.896 18.800,210.003 18.800 C 206.893 18.800,206.345 18.700,206.168 18.100 C 204.806 13.494,200.498 11.402,196.896 13.598 M323.802 185.598 C 323.403 186.039,323.207 186.400,323.367 186.400 C 323.788 186.400,324.928 185.195,324.712 184.979 C 324.611 184.878,324.202 185.156,323.802 185.598 M311.369 327.800 C 311.370 332.420,311.428 334.255,311.499 331.878 C 311.570 329.501,311.569 325.721,311.498 323.478 C 311.427 321.235,311.369 323.180,311.369 327.800 M311.755 381.400 C 311.756 384.260,311.820 385.378,311.897 383.883 C 311.974 382.389,311.974 380.049,311.896 378.683 C 311.818 377.318,311.755 378.540,311.755 381.400 " stroke="none" fill="#fcfbfb" fill-rule="evenodd"></path><path id="path4" d="M16.300 75.082 C 16.795 75.178,17.605 75.178,18.100 75.082 C 18.595 74.987,18.190 74.909,17.200 74.909 C 16.210 74.909,15.805 74.987,16.300 75.082 M21.179 76.096 C 22.436 76.764,23.225 77.564,23.868 78.821 C 24.368 79.799,24.783 80.366,24.789 80.080 C 24.824 78.437,22.463 75.800,20.600 75.404 C 19.596 75.191,19.691 75.304,21.179 76.096 M24.184 82.988 C 23.362 86.092,21.357 86.923,14.000 87.213 L 8.200 87.442 14.037 87.521 C 19.433 87.594,20.005 87.531,21.606 86.684 C 23.356 85.759,25.062 83.333,24.685 82.307 C 24.582 82.028,24.357 82.335,24.184 82.988 M24.700 100.300 C 35.095 100.359,52.105 100.359,62.500 100.300 C 72.895 100.241,64.390 100.192,43.600 100.192 C 22.810 100.192,14.305 100.241,24.700 100.300 M11.040 120.360 C 11.380 121.042,11.719 121.600,11.792 121.600 C 12.118 121.600,11.459 119.981,10.967 119.573 C 10.555 119.230,10.572 119.422,11.040 120.360 M42.900 138.676 C 43.285 138.776,43.915 138.776,44.300 138.676 C 44.685 138.575,44.370 138.493,43.600 138.493 C 42.830 138.493,42.515 138.575,42.900 138.676 M355.305 149.087 C 355.914 149.179,356.814 149.177,357.305 149.082 C 357.797 148.987,357.300 148.911,356.200 148.914 C 355.100 148.917,354.697 148.995,355.305 149.087 M253.421 169.414 C 252.332 169.713,250.662 170.507,249.709 171.179 C 248.756 171.850,247.577 172.411,247.088 172.425 C 246.228 172.450,246.231 172.463,247.181 172.843 C 247.960 173.153,248.374 173.067,249.181 172.428 C 252.492 169.804,258.071 169.055,261.668 170.751 C 263.920 171.812,266.961 173.615,267.993 174.500 C 268.442 174.885,268.995 175.200,269.221 175.200 C 269.448 175.200,270.020 175.560,270.492 176.000 C 270.964 176.440,271.587 176.800,271.875 176.800 C 272.164 176.800,272.400 176.980,272.400 177.200 C 272.400 177.420,272.636 177.600,272.925 177.600 C 273.213 177.600,273.849 177.973,274.339 178.429 C 275.069 179.109,275.422 179.186,276.314 178.860 L 277.400 178.463 276.400 178.425 C 275.850 178.404,273.870 177.406,272.000 176.207 C 260.211 168.651,258.493 168.023,253.421 169.414 M396.573 202.526 C 396.462 202.815,396.541 203.490,396.749 204.026 C 397.085 204.893,397.119 204.835,397.063 203.502 C 396.996 201.898,396.893 201.693,396.573 202.526 M87.203 207.957 C 87.200 208.534,89.305 211.114,92.659 214.643 L 94.600 216.686 101.364 216.943 C 105.084 217.084,109.764 217.170,111.764 217.134 L 115.400 217.068 111.400 216.781 C 109.200 216.623,104.580 216.473,101.134 216.447 L 94.869 216.400 91.755 212.989 C 90.042 211.112,88.318 209.087,87.923 208.489 C 87.528 207.890,87.204 207.651,87.203 207.957 M120.200 217.619 C 122.400 217.777,126.720 217.898,129.800 217.887 L 135.400 217.868 131.400 217.581 C 129.200 217.423,124.880 217.302,121.800 217.313 L 116.200 217.332 120.200 217.619 M141.000 218.421 C 142.980 218.583,147.120 218.704,150.200 218.691 L 155.800 218.666 151.600 218.382 C 149.290 218.226,145.150 218.104,142.400 218.112 L 137.400 218.127 141.000 218.421 M158.400 219.388 C 164.561 221.154,167.804 225.239,167.775 231.198 C 167.732 240.189,162.915 243.355,148.600 243.803 C 144.420 243.934,136.860 244.195,131.800 244.384 C 126.740 244.573,117.223 244.916,110.650 245.147 C 104.078 245.377,98.588 245.688,98.450 245.838 C 98.108 246.209,113.283 245.714,147.200 244.247 C 161.670 243.621,164.295 242.604,167.226 236.494 C 170.647 229.364,164.834 218.601,157.689 218.836 C 156.823 218.864,156.968 218.977,158.400 219.388 M87.456 246.309 C 87.351 246.479,89.186 246.561,91.533 246.491 C 97.707 246.309,98.142 246.117,92.524 246.054 C 89.842 246.025,87.561 246.139,87.456 246.309 M88.101 306.200 C 88.105 307.080,88.187 307.393,88.283 306.895 C 88.379 306.398,88.375 305.678,88.275 305.295 C 88.175 304.913,88.096 305.320,88.101 306.200 M311.731 323.400 C 311.733 324.940,311.805 325.521,311.892 324.691 C 311.979 323.861,311.977 322.601,311.889 321.891 C 311.800 321.181,311.729 321.860,311.731 323.400 M312.124 343.800 C 312.126 345.120,312.201 345.612,312.290 344.893 C 312.379 344.174,312.377 343.094,312.286 342.493 C 312.195 341.892,312.122 342.480,312.124 343.800 M311.731 359.000 C 311.733 360.540,311.805 361.121,311.892 360.291 C 311.979 359.461,311.977 358.201,311.889 357.491 C 311.800 356.781,311.729 357.460,311.731 359.000 M88.151 368.000 C 88.151 370.530,88.216 371.565,88.296 370.300 C 88.375 369.035,88.375 366.965,88.296 365.700 C 88.216 364.435,88.151 365.470,88.151 368.000 M311.724 374.200 C 311.726 375.520,311.801 376.012,311.890 375.293 C 311.979 374.574,311.977 373.494,311.886 372.893 C 311.795 372.292,311.722 372.880,311.724 374.200 " stroke="none" fill="#89aeea" fill-rule="evenodd"></path></g></svg>