<svg id="svg" version="1.1" xmlns="http://www.w3.org/2000/svg" xmlns:xlink="http://www.w3.org/1999/xlink" width="400" height="400" viewBox="0, 0, 400,400"><g id="svgg"><path id="path0" d="M135.600 18.000 C 135.600 18.220,135.317 18.400,134.971 18.400 C 133.301 18.400,133.200 19.063,133.200 30.000 C 133.200 40.937,133.301 41.600,134.971 41.600 C 135.317 41.600,135.600 41.780,135.600 42.000 C 135.600 42.570,138.643 42.496,139.690 41.900 C 141.639 40.791,141.601 41.030,141.587 30.129 C 141.574 19.686,141.407 18.400,140.056 18.400 C 139.805 18.400,139.600 18.220,139.600 18.000 C 139.600 17.780,138.700 17.600,137.600 17.600 C 136.500 17.600,135.600 17.780,135.600 18.000 M65.200 25.897 C 61.466 27.708,61.694 31.966,65.720 35.600 C 66.817 36.590,70.465 40.145,73.826 43.500 C 77.188 46.855,80.132 49.600,80.369 49.600 C 80.606 49.600,80.800 49.780,80.800 50.000 C 80.800 50.220,81.700 50.400,82.800 50.400 C 83.900 50.400,84.800 50.220,84.800 50.000 C 84.800 49.780,85.060 49.600,85.377 49.600 C 86.447 49.600,87.200 47.917,87.200 45.526 L 87.200 43.230 79.085 35.061 C 69.319 25.231,68.156 24.464,65.200 25.897 M206.120 25.788 C 204.219 26.615,201.424 29.243,192.100 38.971 L 188.000 43.249 188.013 45.725 C 188.026 48.308,188.603 49.600,189.744 49.600 C 190.105 49.600,190.400 49.780,190.400 50.000 C 190.400 50.220,191.210 50.400,192.200 50.400 C 193.190 50.400,194.000 50.220,194.000 50.000 C 194.000 49.780,194.275 49.600,194.610 49.600 C 194.946 49.600,198.996 45.811,203.610 41.180 L 212.000 32.760 212.000 30.152 C 212.000 27.263,211.685 26.729,209.427 25.785 C 207.749 25.084,207.738 25.084,206.120 25.788 M43.715 73.422 C 41.473 75.189,41.450 78.392,43.665 80.461 L 44.885 81.600 53.042 81.600 C 58.214 81.600,61.200 81.454,61.200 81.200 C 61.200 80.980,61.495 80.800,61.856 80.800 C 63.005 80.800,63.574 79.509,63.587 76.871 C 63.608 72.666,62.969 72.399,52.905 72.404 C 45.054 72.409,44.991 72.416,43.715 73.422 M213.600 72.800 C 213.600 73.020,213.305 73.200,212.944 73.200 C 211.809 73.200,211.226 74.492,211.213 77.038 C 211.199 79.572,211.400 79.930,213.495 81.100 C 214.624 81.731,233.200 81.826,233.200 81.200 C 233.200 80.980,233.442 80.800,233.738 80.800 C 235.943 80.800,236.520 74.474,234.400 73.536 C 233.740 73.244,233.200 72.869,233.200 72.702 C 233.200 72.536,228.790 72.400,223.400 72.400 C 217.133 72.400,213.600 72.544,213.600 72.800 M253.400 146.800 C 253.264 147.020,251.543 147.200,249.576 147.200 C 247.459 147.200,246.000 147.363,246.000 147.600 C 246.000 147.822,244.933 148.000,243.600 148.000 C 242.267 148.000,241.200 148.178,241.200 148.400 C 241.200 148.620,240.300 148.800,239.200 148.800 C 238.100 148.800,237.200 148.980,237.200 149.200 C 237.200 149.420,236.491 149.600,235.624 149.600 C 234.757 149.600,233.936 149.780,233.800 150.000 C 233.664 150.220,232.933 150.400,232.176 150.400 C 231.419 150.400,230.800 150.580,230.800 150.800 C 230.800 151.020,230.170 151.200,229.400 151.200 C 228.630 151.200,228.000 151.380,228.000 151.600 C 228.000 151.820,227.460 152.000,226.800 152.000 C 226.140 152.000,225.600 152.180,225.600 152.400 C 225.600 152.620,225.060 152.800,224.400 152.800 C 223.740 152.800,223.200 152.980,223.200 153.200 C 223.200 153.420,222.660 153.600,222.000 153.600 C 221.340 153.600,220.800 153.780,220.800 154.000 C 220.800 154.220,220.440 154.400,220.000 154.400 C 219.560 154.400,219.200 154.580,219.200 154.800 C 219.200 155.020,218.660 155.200,218.000 155.200 C 217.340 155.200,216.800 155.380,216.800 155.600 C 216.800 155.820,216.440 156.000,216.000 156.000 C 215.560 156.000,215.200 156.180,215.200 156.400 C 215.200 156.620,214.840 156.800,214.400 156.800 C 213.960 156.800,213.600 156.980,213.600 157.200 C 213.600 157.420,213.150 157.600,212.600 157.600 C 212.050 157.600,211.600 157.736,211.600 157.902 C 211.600 158.069,211.015 158.445,210.300 158.738 C 207.947 159.704,206.202 160.595,206.067 160.900 C 205.993 161.065,205.603 161.200,205.200 161.200 C 204.797 161.200,204.407 161.335,204.333 161.500 C 204.171 161.864,202.050 163.169,201.149 163.459 C 200.791 163.574,200.306 164.089,200.071 164.604 C 199.836 165.119,198.509 166.308,197.122 167.246 C 188.871 172.827,178.327 182.304,173.030 188.900 C 172.185 189.951,171.168 190.800,170.752 190.800 C 170.338 190.800,170.000 190.988,170.000 191.218 C 170.000 191.448,169.595 192.056,169.100 192.568 C 167.967 193.741,167.247 194.632,166.005 196.400 C 165.464 197.170,164.702 198.149,164.311 198.575 C 163.920 199.002,163.600 199.509,163.600 199.703 C 163.600 199.897,163.060 200.841,162.400 201.800 C 161.740 202.759,161.200 203.737,161.200 203.972 C 161.200 204.207,161.053 204.400,160.874 204.400 C 160.476 204.400,159.200 207.001,159.200 207.814 C 159.200 208.136,159.020 208.400,158.800 208.400 C 158.580 208.400,158.400 208.760,158.400 209.200 C 158.400 209.640,158.220 210.000,158.000 210.000 C 157.780 210.000,157.600 210.270,157.600 210.600 C 157.600 210.930,157.420 211.200,157.200 211.200 C 156.980 211.200,156.800 211.560,156.800 212.000 C 156.800 212.440,156.620 212.800,156.400 212.800 C 156.180 212.800,156.000 213.160,156.000 213.600 C 156.000 214.040,155.820 214.400,155.600 214.400 C 155.380 214.400,155.200 214.749,155.200 215.176 C 155.200 215.603,155.020 216.064,154.800 216.200 C 154.580 216.336,154.400 216.887,154.400 217.424 C 154.400 217.961,154.220 218.400,154.000 218.400 C 153.780 218.400,153.600 218.760,153.600 219.200 C 153.600 219.640,153.453 220.000,153.272 220.000 C 153.092 220.000,152.696 220.911,152.393 222.025 C 152.090 223.139,151.697 224.140,151.521 224.249 C 151.344 224.358,151.200 224.887,151.200 225.424 C 151.200 225.961,151.020 226.400,150.800 226.400 C 150.580 226.400,150.400 226.940,150.400 227.600 C 150.400 228.260,150.220 228.800,150.000 228.800 C 149.780 228.800,149.600 229.239,149.600 229.776 C 149.600 230.313,149.420 230.864,149.200 231.000 C 148.980 231.136,148.800 231.867,148.800 232.624 C 148.800 233.381,148.620 234.000,148.400 234.000 C 148.180 234.000,148.000 234.720,148.000 235.600 C 148.000 236.480,147.820 237.200,147.600 237.200 C 147.380 237.200,147.200 237.999,147.200 238.976 C 147.200 239.953,147.020 240.864,146.800 241.000 C 146.580 241.136,146.400 242.137,146.400 243.224 C 146.400 244.311,146.220 245.200,146.000 245.200 C 145.772 245.200,145.600 246.392,145.600 247.976 C 145.600 249.503,145.420 250.864,145.200 251.000 C 144.679 251.322,144.656 276.984,145.176 277.956 C 145.384 278.343,145.593 279.779,145.643 281.147 C 145.692 282.515,145.883 283.728,146.066 283.841 C 146.250 283.954,146.400 284.836,146.400 285.800 C 146.400 286.764,146.580 287.664,146.800 287.800 C 147.020 287.936,147.200 288.847,147.200 289.824 C 147.200 290.801,147.380 291.600,147.600 291.600 C 147.820 291.600,148.000 292.219,148.000 292.976 C 148.000 293.733,148.160 294.452,148.356 294.573 C 148.551 294.694,148.821 295.424,148.956 296.196 C 149.090 296.968,149.310 298.230,149.444 299.000 C 149.578 299.770,149.848 300.400,150.044 300.400 C 150.240 300.400,150.400 300.839,150.400 301.376 C 150.400 301.913,150.580 302.464,150.800 302.600 C 151.020 302.736,151.200 303.199,151.200 303.629 C 151.200 304.059,151.380 304.768,151.600 305.205 C 151.820 305.642,152.180 306.358,152.400 306.795 C 152.620 307.232,152.800 307.862,152.800 308.195 C 152.800 308.528,152.980 308.800,153.200 308.800 C 153.420 308.800,153.600 309.160,153.600 309.600 C 153.600 310.040,153.780 310.400,154.000 310.400 C 154.220 310.400,154.400 310.940,154.400 311.600 C 154.400 312.260,154.580 312.800,154.800 312.800 C 155.020 312.800,155.200 313.160,155.200 313.600 C 155.200 314.040,155.380 314.400,155.600 314.400 C 155.820 314.400,156.000 314.760,156.000 315.200 C 156.000 315.640,156.180 316.000,156.400 316.000 C 156.620 316.000,156.800 316.360,156.800 316.800 C 156.800 317.240,156.980 317.600,157.200 317.600 C 157.420 317.600,157.600 317.960,157.600 318.400 C 157.600 318.840,157.744 319.200,157.920 319.200 C 158.095 319.200,158.461 319.813,158.732 320.562 C 159.003 321.311,159.669 322.579,160.212 323.380 C 160.755 324.181,161.200 325.098,161.200 325.418 C 161.200 325.738,161.358 326.000,161.551 326.000 C 161.745 326.000,162.127 326.540,162.400 327.200 C 162.673 327.860,163.055 328.400,163.249 328.400 C 163.442 328.400,163.600 328.625,163.600 328.900 C 163.601 329.175,164.051 329.923,164.600 330.562 C 165.150 331.201,165.600 331.868,165.600 332.044 C 165.600 332.220,166.050 332.814,166.600 333.364 C 167.150 333.914,167.600 334.517,167.600 334.704 C 167.600 335.394,170.332 338.000,171.054 337.998 C 171.792 337.997,173.896 337.008,177.000 335.206 C 177.880 334.695,179.262 333.918,180.070 333.480 C 183.417 331.667,190.511 325.922,195.100 321.310 C 200.429 315.953,200.790 315.226,199.000 313.436 C 198.450 312.886,198.000 312.248,198.000 312.018 C 198.000 311.788,197.820 311.600,197.600 311.600 C 197.380 311.600,197.200 311.330,197.200 311.000 C 197.200 310.670,197.020 310.400,196.800 310.400 C 196.580 310.400,196.400 310.170,196.400 309.888 C 196.400 309.607,196.040 309.117,195.600 308.800 C 195.160 308.483,194.800 307.943,194.800 307.600 C 194.800 307.257,194.440 306.717,194.000 306.400 C 193.560 306.083,193.200 305.503,193.200 305.112 C 193.200 304.720,193.020 304.400,192.800 304.400 C 192.580 304.400,192.400 304.040,192.400 303.600 C 192.400 303.160,192.264 302.800,192.098 302.800 C 191.931 302.800,191.543 302.215,191.236 301.500 C 190.377 299.506,187.982 294.285,187.569 293.505 C 187.366 293.123,187.200 292.448,187.200 292.005 C 187.200 291.562,187.020 291.200,186.800 291.200 C 186.580 291.200,186.400 290.660,186.400 290.000 C 186.400 289.340,186.220 288.800,186.000 288.800 C 185.780 288.800,185.600 288.361,185.600 287.824 C 185.600 287.287,185.420 286.736,185.200 286.600 C 184.980 286.464,184.800 285.744,184.800 285.000 C 184.800 284.256,184.620 283.536,184.400 283.400 C 184.180 283.264,184.000 282.364,184.000 281.400 C 184.000 280.436,183.820 279.536,183.600 279.400 C 183.380 279.264,183.200 278.173,183.200 276.976 C 183.200 275.779,183.020 274.800,182.800 274.800 C 182.544 274.800,182.400 271.208,182.400 264.824 C 182.400 258.604,182.551 254.754,182.800 254.600 C 183.020 254.464,183.200 253.294,183.200 252.000 C 183.200 250.706,183.380 249.536,183.600 249.400 C 183.820 249.264,184.000 248.544,184.000 247.800 C 184.000 247.056,184.180 246.336,184.400 246.200 C 184.620 246.064,184.800 245.333,184.800 244.576 C 184.800 243.819,184.980 243.200,185.200 243.200 C 185.420 243.200,185.600 242.671,185.600 242.024 C 185.600 241.377,185.780 240.736,186.000 240.600 C 186.220 240.464,186.400 239.949,186.400 239.456 C 186.400 238.963,186.543 238.389,186.718 238.180 C 186.893 237.971,187.268 237.080,187.552 236.200 C 188.114 234.450,188.696 233.074,190.447 229.343 C 191.081 227.991,191.600 226.686,191.600 226.443 C 191.600 226.199,191.780 226.000,192.000 226.000 C 192.220 226.000,192.400 225.640,192.400 225.200 C 192.400 224.760,192.580 224.400,192.800 224.400 C 193.020 224.400,193.200 224.130,193.200 223.800 C 193.200 223.470,193.380 223.200,193.600 223.200 C 193.820 223.200,194.000 222.930,194.000 222.600 C 194.000 222.270,194.180 222.000,194.400 222.000 C 194.620 222.000,194.800 221.730,194.800 221.400 C 194.800 221.070,194.980 220.800,195.200 220.800 C 195.420 220.800,195.600 220.575,195.601 220.300 C 195.601 220.025,196.141 219.170,196.800 218.400 C 197.459 217.630,197.999 216.857,197.999 216.682 C 198.000 216.507,198.450 215.914,199.000 215.364 C 199.550 214.814,200.000 213.942,200.000 213.427 C 200.000 212.235,206.149 205.671,210.600 202.112 C 212.360 200.705,214.087 199.320,214.438 199.034 C 218.175 195.989,227.681 190.800,229.521 190.800 C 230.632 190.800,232.379 190.221,234.495 189.151 C 234.877 188.958,235.541 188.800,235.971 188.800 C 236.401 188.800,236.864 188.620,237.000 188.400 C 237.136 188.180,237.676 188.000,238.200 188.000 C 238.724 188.000,239.264 187.820,239.400 187.600 C 239.536 187.380,240.166 187.200,240.800 187.200 C 241.434 187.200,242.064 187.020,242.200 186.800 C 242.336 186.580,243.056 186.400,243.800 186.400 C 244.544 186.400,245.264 186.220,245.400 186.000 C 245.536 185.780,246.447 185.600,247.424 185.600 C 248.401 185.600,249.200 185.435,249.200 185.233 C 249.200 184.446,268.587 183.627,269.342 184.382 C 269.572 184.612,270.948 184.800,272.400 184.800 C 273.852 184.800,275.211 184.963,275.420 185.161 C 275.629 185.360,276.610 185.622,277.600 185.743 C 280.835 186.139,282.404 186.482,282.627 186.844 C 282.748 187.040,283.366 187.200,284.000 187.200 C 284.634 187.200,285.264 187.380,285.400 187.600 C 285.536 187.820,286.053 188.000,286.548 188.000 C 287.044 188.000,288.195 188.360,289.106 188.800 C 290.016 189.240,290.922 189.600,291.119 189.600 C 291.316 189.600,292.040 189.881,292.728 190.224 C 293.416 190.567,294.344 190.876,294.790 190.909 C 295.235 190.943,295.600 191.112,295.600 191.285 C 295.600 191.458,295.960 191.600,296.400 191.600 C 296.840 191.600,297.200 191.780,297.200 192.000 C 297.200 192.220,297.560 192.400,298.000 192.400 C 298.440 192.400,298.800 192.580,298.800 192.800 C 298.800 193.020,299.160 193.200,299.600 193.200 C 300.040 193.200,300.400 193.380,300.400 193.600 C 300.400 193.820,300.636 194.000,300.925 194.000 C 301.213 194.000,301.836 194.360,302.308 194.800 C 302.780 195.240,303.444 195.600,303.783 195.600 C 304.122 195.600,304.400 195.780,304.400 196.000 C 304.400 196.220,304.636 196.400,304.925 196.400 C 305.213 196.400,305.836 196.760,306.308 197.200 C 306.780 197.640,307.327 198.000,307.524 198.000 C 307.721 198.000,308.446 198.540,309.137 199.200 C 309.828 199.860,310.529 200.404,310.696 200.409 C 310.863 200.414,311.720 201.048,312.600 201.817 C 313.480 202.586,314.979 203.887,315.932 204.708 C 318.820 207.196,324.400 212.772,324.400 213.169 C 324.400 213.375,324.646 213.789,324.948 214.090 C 325.249 214.392,326.544 216.160,327.826 218.019 C 329.108 219.879,330.301 221.460,330.478 221.533 C 330.655 221.607,330.800 221.820,330.800 222.007 C 330.800 222.460,333.318 226.563,333.700 226.733 C 333.865 226.807,334.000 227.212,334.000 227.633 C 334.000 228.055,334.180 228.400,334.400 228.400 C 334.620 228.400,334.800 228.760,334.800 229.200 C 334.800 229.640,334.980 230.000,335.200 230.000 C 335.420 230.000,335.600 230.439,335.600 230.976 C 335.600 231.513,335.780 232.064,336.000 232.200 C 336.220 232.336,336.400 232.797,336.400 233.224 C 336.400 233.651,336.580 234.000,336.800 234.000 C 337.020 234.000,337.200 234.360,337.200 234.800 C 337.200 235.240,337.380 235.600,337.600 235.600 C 337.820 235.600,338.000 236.140,338.000 236.800 C 338.000 237.460,338.180 238.000,338.400 238.000 C 338.620 238.000,338.800 238.450,338.800 239.000 C 338.800 239.550,338.980 240.000,339.200 240.000 C 339.420 240.000,339.600 240.529,339.600 241.176 C 339.600 241.823,339.780 242.464,340.000 242.600 C 340.220 242.736,340.400 243.467,340.400 244.224 C 340.400 244.981,340.580 245.600,340.800 245.600 C 341.020 245.600,341.200 246.500,341.200 247.600 C 341.200 248.700,341.360 249.600,341.556 249.600 C 341.998 249.600,342.515 256.926,342.545 263.600 C 342.576 270.294,342.015 279.200,341.564 279.200 C 341.364 279.200,341.200 280.010,341.200 281.000 C 341.200 281.990,341.039 282.800,340.842 282.800 C 340.645 282.800,340.382 283.475,340.257 284.300 C 339.716 287.880,339.491 288.800,339.156 288.800 C 338.960 288.800,338.800 289.340,338.800 290.000 C 338.800 290.660,338.620 291.200,338.400 291.200 C 338.180 291.200,338.000 291.560,338.000 292.000 C 338.000 292.440,337.820 292.800,337.600 292.800 C 337.380 292.800,337.200 293.239,337.200 293.776 C 337.200 294.313,337.020 294.864,336.800 295.000 C 336.580 295.136,336.400 295.597,336.400 296.024 C 336.400 296.451,336.220 296.800,336.000 296.800 C 335.780 296.800,335.600 297.065,335.600 297.389 C 335.600 297.713,335.148 298.748,334.595 299.689 C 334.042 300.630,333.280 302.075,332.901 302.900 C 332.522 303.725,332.074 304.400,331.906 304.400 C 331.738 304.400,331.600 304.760,331.600 305.200 C 331.600 305.640,331.432 306.000,331.227 306.000 C 331.022 306.000,330.740 306.359,330.601 306.798 C 330.462 307.236,330.106 307.837,329.811 308.132 C 329.515 308.427,328.645 309.643,327.876 310.834 C 327.108 312.026,326.101 313.397,325.639 313.883 C 325.178 314.369,324.800 314.954,324.800 315.183 C 324.800 315.412,324.620 315.600,324.400 315.600 C 324.180 315.600,324.000 315.782,324.000 316.004 C 324.000 316.532,314.932 325.600,314.404 325.600 C 314.182 325.600,314.000 325.768,314.000 325.973 C 314.000 326.178,313.685 326.448,313.300 326.572 C 312.915 326.696,312.025 327.338,311.322 327.999 C 310.619 328.660,309.920 329.200,309.769 329.200 C 309.617 329.200,309.203 329.516,308.847 329.903 C 308.491 330.289,307.705 330.860,307.100 331.170 C 306.495 331.481,306.000 331.885,306.000 332.068 C 306.000 332.250,305.640 332.400,305.200 332.400 C 304.760 332.400,304.400 332.558,304.400 332.751 C 304.400 332.945,303.860 333.327,303.200 333.600 C 302.540 333.873,302.000 334.255,302.000 334.449 C 302.000 334.642,301.640 334.800,301.200 334.800 C 300.760 334.800,300.400 334.980,300.400 335.200 C 300.400 335.420,300.040 335.600,299.600 335.600 C 299.160 335.600,298.799 335.735,298.797 335.900 C 298.793 336.259,296.856 337.200,296.120 337.200 C 295.834 337.200,295.600 337.380,295.600 337.600 C 295.600 337.820,295.240 338.000,294.800 338.000 C 294.360 338.000,294.000 338.180,294.000 338.400 C 294.000 338.620,293.550 338.800,293.000 338.800 C 292.450 338.800,292.000 338.980,292.000 339.200 C 292.000 339.420,291.651 339.600,291.224 339.600 C 290.797 339.600,290.336 339.780,290.200 340.000 C 290.064 340.220,289.513 340.400,288.976 340.400 C 288.439 340.400,288.000 340.580,288.000 340.800 C 288.000 341.020,287.548 341.200,286.995 341.200 C 286.442 341.200,285.677 341.360,285.295 341.555 C 284.581 341.920,281.338 342.640,277.800 343.218 C 276.700 343.398,275.350 343.644,274.800 343.766 C 269.264 344.987,254.330 344.753,247.800 343.343 C 246.260 343.010,244.010 342.564,242.800 342.351 C 241.590 342.138,240.287 341.792,239.905 341.582 C 239.523 341.372,238.758 341.200,238.205 341.200 C 237.652 341.200,237.200 341.020,237.200 340.800 C 237.200 340.580,236.649 340.400,235.976 340.400 C 235.263 340.400,234.856 340.233,235.000 340.000 C 235.136 339.780,234.874 339.600,234.418 339.600 C 233.962 339.600,233.232 339.420,232.795 339.200 C 232.358 338.980,231.642 338.620,231.205 338.400 C 229.629 337.606,228.916 338.015,225.805 341.500 C 218.451 349.736,209.480 357.541,200.862 363.200 C 199.916 363.821,199.989 365.200,200.967 365.200 C 201.232 365.200,201.836 365.560,202.308 366.000 C 202.780 366.440,203.444 366.800,203.783 366.800 C 204.122 366.800,204.400 366.980,204.400 367.200 C 204.400 367.420,204.760 367.600,205.200 367.600 C 205.640 367.600,206.000 367.745,206.000 367.923 C 206.000 368.280,210.875 370.800,211.566 370.800 C 211.805 370.800,212.000 370.944,212.000 371.120 C 212.000 371.295,212.675 371.678,213.500 371.971 C 214.325 372.263,215.703 372.836,216.561 373.244 C 217.420 373.653,218.725 374.100,219.461 374.238 C 220.198 374.376,220.800 374.649,220.800 374.845 C 220.800 375.040,221.340 375.200,222.000 375.200 C 222.660 375.200,223.200 375.380,223.200 375.600 C 223.200 375.820,223.740 376.000,224.400 376.000 C 225.060 376.000,225.600 376.180,225.600 376.400 C 225.600 376.620,226.039 376.800,226.576 376.800 C 227.113 376.800,227.664 376.980,227.800 377.200 C 227.936 377.420,228.566 377.600,229.200 377.600 C 229.834 377.600,230.464 377.780,230.600 378.000 C 230.736 378.220,231.456 378.400,232.200 378.400 C 232.944 378.400,233.664 378.580,233.800 378.800 C 233.936 379.020,234.757 379.200,235.624 379.200 C 236.491 379.200,237.200 379.380,237.200 379.600 C 237.200 379.820,238.100 380.000,239.200 380.000 C 240.300 380.000,241.200 380.180,241.200 380.400 C 241.200 380.622,242.267 380.800,243.600 380.800 C 244.933 380.800,246.000 380.978,246.000 381.200 C 246.000 381.435,247.392 381.600,249.376 381.600 C 251.233 381.600,252.864 381.780,253.000 382.000 C 253.153 382.248,256.730 382.400,262.400 382.400 C 268.070 382.400,271.647 382.248,271.800 382.000 C 271.936 381.780,273.657 381.600,275.624 381.600 C 277.741 381.600,279.200 381.437,279.200 381.200 C 279.200 380.980,280.179 380.800,281.376 380.800 C 282.573 380.800,283.664 380.620,283.800 380.400 C 283.936 380.180,284.922 380.000,285.990 380.000 C 287.059 380.000,287.993 379.829,288.067 379.620 C 288.140 379.411,288.965 379.196,289.900 379.142 C 290.835 379.088,291.600 378.899,291.600 378.722 C 291.600 378.545,292.140 378.400,292.800 378.400 C 293.460 378.400,294.000 378.220,294.000 378.000 C 294.000 377.780,294.720 377.600,295.600 377.600 C 296.480 377.600,297.200 377.420,297.200 377.200 C 297.200 376.980,297.639 376.800,298.176 376.800 C 298.713 376.800,299.264 376.620,299.400 376.400 C 299.536 376.180,300.076 376.000,300.600 376.000 C 301.124 376.000,301.664 375.820,301.800 375.600 C 301.936 375.380,302.451 375.200,302.944 375.200 C 303.437 375.200,304.011 375.042,304.220 374.849 C 304.429 374.656,305.590 374.184,306.800 373.800 C 308.010 373.416,309.171 372.944,309.380 372.751 C 309.589 372.558,310.084 372.400,310.480 372.400 C 310.876 372.400,311.200 372.220,311.200 372.000 C 311.200 371.780,311.456 371.600,311.769 371.600 C 312.448 371.600,318.942 368.341,319.133 367.904 C 319.207 367.737,319.612 367.600,320.033 367.600 C 320.455 367.600,320.800 367.464,320.800 367.298 C 320.800 367.131,321.306 366.771,321.925 366.497 C 322.544 366.224,323.436 365.640,323.908 365.200 C 324.380 364.760,325.004 364.400,325.295 364.400 C 325.586 364.400,326.083 364.040,326.400 363.600 C 326.717 363.160,327.231 362.800,327.541 362.800 C 327.852 362.800,328.397 362.484,328.753 362.097 C 329.109 361.711,329.895 361.140,330.500 360.830 C 331.105 360.519,331.600 360.115,331.600 359.932 C 331.600 359.750,331.827 359.600,332.104 359.600 C 332.382 359.600,333.327 358.973,334.204 358.208 C 335.082 357.442,335.925 356.812,336.078 356.808 C 336.231 356.803,337.376 355.855,338.624 354.700 C 339.871 353.545,341.182 352.433,341.537 352.229 C 342.441 351.710,350.800 343.194,350.800 342.792 C 350.800 342.611,351.475 341.748,352.300 340.874 C 354.481 338.563,356.546 335.988,357.414 334.500 C 357.831 333.785,358.314 333.200,358.486 333.200 C 358.659 333.200,358.800 332.930,358.800 332.600 C 358.800 332.270,358.980 332.000,359.200 332.000 C 359.420 332.000,359.600 331.770,359.600 331.488 C 359.600 331.207,359.960 330.717,360.400 330.400 C 360.840 330.083,361.200 329.503,361.200 329.112 C 361.200 328.720,361.380 328.400,361.600 328.400 C 361.820 328.400,362.000 328.130,362.000 327.800 C 362.000 327.470,362.180 327.200,362.400 327.200 C 362.620 327.200,362.800 326.930,362.800 326.600 C 362.800 326.270,362.980 326.000,363.200 326.000 C 363.420 326.000,363.600 325.640,363.600 325.200 C 363.600 324.760,363.780 324.400,364.000 324.400 C 364.220 324.400,364.400 324.164,364.400 323.875 C 364.400 323.587,364.725 323.002,365.122 322.575 C 365.520 322.149,366.103 321.215,366.420 320.500 C 366.736 319.785,367.131 319.200,367.298 319.200 C 367.464 319.200,367.600 318.966,367.600 318.680 C 367.600 317.944,368.541 316.007,368.900 316.003 C 369.065 316.001,369.200 315.640,369.200 315.200 C 369.200 314.760,369.380 314.400,369.600 314.400 C 369.820 314.400,370.000 314.128,370.000 313.795 C 370.000 313.462,370.159 312.877,370.353 312.495 C 370.548 312.113,370.889 311.350,371.113 310.800 C 371.336 310.250,371.808 309.141,372.162 308.335 C 372.515 307.529,373.169 305.639,373.614 304.135 C 374.059 302.631,374.598 301.087,374.811 300.705 C 375.025 300.323,375.200 299.468,375.200 298.805 C 375.200 298.142,375.380 297.600,375.600 297.600 C 375.820 297.600,376.000 296.970,376.000 296.200 C 376.000 295.430,376.180 294.800,376.400 294.800 C 376.620 294.800,376.800 294.080,376.800 293.200 C 376.800 292.320,376.980 291.600,377.200 291.600 C 377.420 291.600,377.600 290.801,377.600 289.824 C 377.600 288.847,377.780 287.936,378.000 287.800 C 378.220 287.664,378.400 286.663,378.400 285.576 C 378.400 284.489,378.580 283.600,378.800 283.600 C 379.025 283.600,379.200 282.475,379.200 281.024 C 379.200 279.607,379.380 278.336,379.600 278.200 C 379.854 278.043,380.000 272.996,380.000 264.376 C 380.000 255.592,379.859 250.800,379.600 250.800 C 379.371 250.800,379.200 249.600,379.200 248.000 C 379.200 246.400,379.029 245.200,378.800 245.200 C 378.580 245.200,378.400 244.311,378.400 243.224 C 378.400 242.137,378.220 241.136,378.000 241.000 C 377.780 240.864,377.600 240.054,377.600 239.200 C 377.600 238.346,377.420 237.536,377.200 237.400 C 376.980 237.264,376.800 236.443,376.800 235.576 C 376.800 234.709,376.620 234.000,376.400 234.000 C 376.180 234.000,376.000 233.381,376.000 232.624 C 376.000 231.867,375.840 231.148,375.644 231.027 C 375.449 230.906,375.198 230.221,375.087 229.504 C 374.895 228.254,372.833 221.974,372.000 220.100 C 371.780 219.605,371.442 218.795,371.249 218.300 C 370.494 216.363,368.187 211.793,367.902 211.667 C 367.736 211.593,367.600 211.314,367.600 211.046 C 367.600 210.337,366.651 208.407,366.300 208.403 C 366.135 208.401,366.000 208.040,366.000 207.600 C 366.000 207.160,365.820 206.800,365.600 206.800 C 365.380 206.800,365.200 206.530,365.200 206.200 C 365.200 205.870,365.020 205.600,364.800 205.600 C 364.580 205.600,364.400 205.330,364.400 205.000 C 364.400 204.670,364.220 204.400,364.000 204.400 C 363.780 204.400,363.600 204.040,363.600 203.600 C 363.600 203.160,363.420 202.800,363.200 202.800 C 362.980 202.800,362.800 202.564,362.800 202.275 C 362.800 201.987,362.485 201.402,362.100 200.975 C 361.715 200.549,361.145 199.705,360.832 199.100 C 360.520 198.495,360.115 198.000,359.932 198.000 C 359.750 198.000,359.600 197.730,359.600 197.400 C 359.600 197.070,359.420 196.800,359.200 196.800 C 358.980 196.800,358.800 196.530,358.800 196.200 C 358.800 195.870,358.659 195.600,358.486 195.600 C 358.314 195.600,357.827 195.015,357.405 194.300 C 356.982 193.586,356.224 192.587,355.719 192.082 C 355.213 191.577,354.800 191.010,354.800 190.823 C 354.800 190.635,353.720 189.350,352.400 187.967 C 351.080 186.584,350.000 185.319,350.000 185.155 C 350.000 184.792,343.823 178.666,341.777 177.000 C 340.966 176.340,339.740 175.257,339.051 174.593 C 338.363 173.930,337.170 172.942,336.400 172.399 C 334.870 171.319,333.798 170.473,332.984 169.700 C 332.694 169.425,332.264 169.200,332.029 169.200 C 331.793 169.200,331.600 169.050,331.600 168.868 C 331.600 168.685,331.105 168.281,330.500 167.970 C 329.895 167.660,329.109 167.089,328.753 166.703 C 328.397 166.316,327.812 166.000,327.453 166.000 C 327.094 166.000,326.800 165.850,326.800 165.668 C 326.800 165.485,326.308 165.080,325.706 164.768 C 325.104 164.455,324.308 163.947,323.937 163.638 C 323.357 163.154,321.258 161.942,317.200 159.746 C 316.650 159.448,315.975 159.204,315.700 159.202 C 315.425 159.201,315.200 159.020,315.200 158.800 C 315.200 158.580,314.840 158.400,314.400 158.400 C 313.960 158.400,313.600 158.220,313.600 158.000 C 313.600 157.780,313.161 157.600,312.624 157.600 C 312.087 157.600,311.536 157.420,311.400 157.200 C 311.264 156.980,310.803 156.800,310.376 156.800 C 309.949 156.800,309.600 156.620,309.600 156.400 C 309.600 156.180,309.240 156.000,308.800 156.000 C 308.360 156.000,308.000 155.820,308.000 155.600 C 308.000 155.380,307.645 155.200,307.212 155.200 C 306.779 155.200,305.783 154.840,305.000 154.400 C 304.217 153.960,303.232 153.600,302.811 153.600 C 302.391 153.600,301.936 153.420,301.800 153.200 C 301.664 152.980,301.113 152.800,300.576 152.800 C 300.039 152.800,299.600 152.620,299.600 152.400 C 299.600 152.180,299.071 152.000,298.424 152.000 C 297.777 152.000,297.136 151.820,297.000 151.600 C 296.864 151.380,296.133 151.200,295.376 151.200 C 294.619 151.200,294.000 151.020,294.000 150.800 C 294.000 150.580,293.381 150.400,292.624 150.400 C 291.867 150.400,291.136 150.220,291.000 150.000 C 290.864 149.780,290.144 149.600,289.400 149.600 C 288.656 149.600,287.936 149.420,287.800 149.200 C 287.664 148.980,286.753 148.800,285.776 148.800 C 284.799 148.800,284.000 148.620,284.000 148.400 C 284.000 148.178,282.941 148.000,281.624 148.000 C 280.317 148.000,279.136 147.820,279.000 147.600 C 278.864 147.380,277.154 147.200,275.200 147.200 C 273.246 147.200,271.536 147.020,271.400 146.800 C 271.247 146.553,267.804 146.400,262.400 146.400 C 256.996 146.400,253.553 146.553,253.400 146.800 " stroke="none" fill="#fcbc04" fill-rule="evenodd"></path><path id="path1" d="M115.800 148.400 C 115.664 148.620,114.743 148.800,113.753 148.800 C 112.655 148.800,112.049 148.956,112.200 149.200 C 112.352 149.447,111.671 149.600,110.424 149.600 C 109.311 149.600,108.400 149.780,108.400 150.000 C 108.400 150.220,107.781 150.400,107.024 150.400 C 106.267 150.400,105.536 150.580,105.400 150.800 C 105.264 151.020,104.724 151.200,104.200 151.200 C 103.676 151.200,103.136 151.380,103.000 151.600 C 102.864 151.820,102.223 152.000,101.576 152.000 C 100.929 152.000,100.400 152.180,100.400 152.400 C 100.400 152.620,99.860 152.800,99.200 152.800 C 98.540 152.800,98.000 152.980,98.000 153.200 C 98.000 153.420,97.449 153.600,96.776 153.600 C 96.063 153.600,95.656 153.767,95.800 154.000 C 95.936 154.220,95.758 154.400,95.404 154.400 C 95.051 154.400,94.016 154.760,93.106 155.200 C 92.195 155.640,91.214 156.000,90.925 156.000 C 90.636 156.000,90.400 156.180,90.400 156.400 C 90.400 156.620,89.961 156.800,89.424 156.800 C 88.887 156.800,88.336 156.980,88.200 157.200 C 88.064 157.420,87.603 157.600,87.176 157.600 C 86.749 157.600,86.400 157.780,86.400 158.000 C 86.400 158.220,86.040 158.400,85.600 158.400 C 85.160 158.400,84.800 158.580,84.800 158.800 C 84.800 159.020,84.665 159.179,84.500 159.153 C 83.684 159.024,83.180 159.244,83.417 159.627 C 83.575 159.883,83.384 160.003,82.940 159.927 C 82.532 159.857,82.241 160.013,82.292 160.275 C 82.345 160.552,82.052 160.687,81.592 160.598 C 81.156 160.515,80.800 160.616,80.800 160.823 C 80.800 161.030,80.440 161.200,80.000 161.200 C 79.560 161.200,79.200 161.380,79.200 161.600 C 79.200 161.820,79.033 162.000,78.828 162.000 C 78.337 162.000,71.038 166.822,70.867 167.260 C 70.793 167.447,70.428 167.600,70.055 167.600 C 69.682 167.600,69.117 167.960,68.800 168.400 C 68.483 168.840,68.037 169.200,67.810 169.200 C 67.582 169.200,66.663 169.875,65.767 170.700 C 64.871 171.525,63.918 172.248,63.649 172.307 C 62.894 172.471,60.419 175.085,60.727 175.393 C 60.877 175.544,60.786 175.607,60.524 175.533 C 59.575 175.268,49.291 184.999,50.148 185.351 C 50.397 185.453,50.306 185.551,49.946 185.568 C 49.586 185.586,48.971 186.095,48.579 186.700 C 48.187 187.305,47.536 188.091,47.133 188.447 C 46.730 188.803,46.400 189.291,46.400 189.533 C 46.400 189.774,46.040 190.165,45.600 190.400 C 45.160 190.635,44.800 190.996,44.800 191.200 C 44.800 191.405,44.242 192.143,43.560 192.841 C 42.878 193.538,42.141 194.625,41.921 195.255 C 41.701 195.885,41.269 196.400,40.961 196.400 C 40.652 196.400,40.400 196.720,40.400 197.112 C 40.400 197.503,40.040 198.083,39.600 198.400 C 39.160 198.717,38.800 199.257,38.800 199.600 C 38.800 199.943,38.440 200.483,38.000 200.800 C 37.560 201.117,37.200 201.697,37.200 202.088 C 37.200 202.480,37.054 202.800,36.875 202.800 C 36.696 202.800,36.305 203.422,36.007 204.182 C 35.709 204.942,35.315 205.471,35.132 205.358 C 34.950 205.245,34.800 205.523,34.800 205.976 C 34.800 206.429,34.609 206.800,34.376 206.800 C 34.143 206.800,34.055 206.965,34.180 207.168 C 34.305 207.370,34.136 207.807,33.804 208.139 C 33.472 208.471,33.200 208.936,33.200 209.171 C 33.200 209.407,33.020 209.600,32.800 209.600 C 32.580 209.600,32.400 210.061,32.400 210.624 C 32.400 211.204,32.227 211.540,32.000 211.400 C 31.780 211.264,31.600 211.523,31.600 211.976 C 31.600 212.429,31.420 212.800,31.200 212.800 C 30.980 212.800,30.800 213.160,30.800 213.600 C 30.800 214.040,30.620 214.400,30.400 214.400 C 30.180 214.400,30.000 214.745,30.000 215.167 C 30.000 215.588,29.831 215.993,29.625 216.067 C 29.418 216.140,29.184 216.650,29.104 217.200 C 29.024 217.750,28.563 219.078,28.079 220.151 C 27.596 221.224,27.200 222.157,27.200 222.225 C 27.200 222.293,26.985 222.855,26.722 223.474 C 26.459 224.093,26.226 224.780,26.203 225.000 C 26.181 225.220,25.932 225.819,25.651 226.331 C 25.369 226.843,25.237 227.518,25.357 227.831 C 25.477 228.144,25.401 228.400,25.187 228.400 C 24.974 228.400,24.800 229.041,24.800 229.824 C 24.800 230.671,24.638 231.147,24.400 231.000 C 24.159 230.851,24.000 231.388,24.000 232.353 C 24.000 233.233,23.820 234.064,23.600 234.200 C 23.380 234.336,23.200 235.067,23.200 235.824 C 23.200 236.581,23.020 237.200,22.800 237.200 C 22.580 237.200,22.400 237.909,22.400 238.776 C 22.400 239.643,22.220 240.464,22.000 240.600 C 21.780 240.736,21.600 241.737,21.600 242.824 C 21.600 243.911,21.420 244.800,21.200 244.800 C 20.969 244.800,20.800 246.075,20.800 247.824 C 20.800 249.737,20.653 250.756,20.400 250.600 C 20.136 250.437,20.000 255.129,20.000 264.376 C 20.000 273.459,20.141 278.400,20.400 278.400 C 20.626 278.400,20.800 279.533,20.800 281.000 C 20.800 282.467,20.974 283.600,21.200 283.600 C 21.420 283.600,21.600 284.500,21.600 285.600 C 21.600 286.700,21.780 287.600,22.000 287.600 C 22.220 287.600,22.400 288.500,22.400 289.600 C 22.400 290.700,22.580 291.600,22.800 291.600 C 23.020 291.600,23.200 292.305,23.200 293.167 C 23.200 294.028,23.384 294.795,23.609 294.870 C 23.833 294.944,24.042 295.672,24.073 296.487 C 24.103 297.301,24.280 297.874,24.464 297.760 C 24.649 297.646,24.800 298.093,24.800 298.753 C 24.800 299.413,24.972 300.059,25.183 300.189 C 25.393 300.319,25.469 300.675,25.352 300.980 C 25.235 301.286,25.430 301.979,25.785 302.521 C 26.140 303.063,26.400 303.663,26.362 303.853 C 26.239 304.472,26.893 306.811,27.252 307.032 C 27.443 307.150,27.600 307.597,27.600 308.024 C 27.600 308.451,27.780 308.800,28.000 308.800 C 28.220 308.800,28.400 309.228,28.400 309.751 C 28.400 310.274,28.659 310.917,28.976 311.180 C 29.293 311.443,29.454 311.915,29.333 312.229 C 29.213 312.543,29.314 312.800,29.557 312.800 C 29.801 312.800,30.000 313.160,30.000 313.600 C 30.000 314.040,30.180 314.400,30.400 314.400 C 30.620 314.400,30.800 314.760,30.800 315.200 C 30.800 315.640,30.935 316.001,31.100 316.003 C 31.459 316.007,32.400 317.944,32.400 318.680 C 32.400 318.966,32.580 319.200,32.800 319.200 C 33.020 319.200,33.200 319.590,33.200 320.067 C 33.200 320.543,33.315 320.818,33.456 320.677 C 33.711 320.422,34.489 321.657,35.863 324.500 C 36.262 325.325,36.726 326.000,36.894 326.000 C 37.062 326.000,37.200 326.390,37.200 326.867 C 37.200 327.343,37.317 327.616,37.460 327.473 C 37.796 327.137,38.771 328.414,38.787 329.212 C 38.794 329.548,39.160 330.083,39.600 330.400 C 40.040 330.717,40.400 331.231,40.400 331.541 C 40.400 331.852,40.733 332.397,41.141 332.753 C 41.548 333.109,42.163 333.940,42.507 334.600 C 42.851 335.260,43.507 336.197,43.966 336.683 C 44.425 337.169,44.800 337.682,44.800 337.824 C 44.800 338.044,45.957 339.340,49.300 342.862 C 49.685 343.268,49.916 343.600,49.814 343.600 C 49.712 343.600,51.518 345.490,53.828 347.800 C 56.138 350.110,58.212 352.000,58.438 352.000 C 58.663 352.000,58.753 352.153,58.637 352.340 C 58.522 352.527,58.871 352.917,59.414 353.207 C 59.956 353.498,60.400 353.865,60.400 354.024 C 60.400 354.183,60.857 354.428,61.416 354.568 C 61.975 354.709,62.345 354.966,62.237 355.140 C 62.129 355.315,62.392 355.758,62.820 356.125 C 63.249 356.492,63.605 356.659,63.612 356.496 C 63.619 356.333,63.810 356.519,64.037 356.908 C 64.264 357.298,64.606 357.520,64.797 357.402 C 64.989 357.283,65.399 357.548,65.709 357.991 C 66.018 358.433,66.391 358.676,66.536 358.531 C 66.681 358.386,66.800 358.567,66.800 358.933 C 66.800 359.300,67.094 359.600,67.453 359.600 C 67.812 359.600,68.397 359.916,68.753 360.303 C 69.109 360.689,69.895 361.260,70.500 361.570 C 71.105 361.881,71.600 362.285,71.600 362.468 C 71.600 362.650,71.790 362.800,72.022 362.800 C 72.254 362.800,73.504 363.520,74.800 364.400 C 76.096 365.280,77.346 366.000,77.578 366.000 C 77.810 366.000,78.000 366.180,78.000 366.400 C 78.000 366.620,78.255 366.800,78.567 366.800 C 78.878 366.800,79.193 366.935,79.267 367.100 C 79.482 367.585,84.303 370.118,88.200 371.795 C 89.080 372.173,90.520 372.813,91.400 373.216 C 93.269 374.071,94.875 374.591,95.300 374.479 C 95.465 374.436,95.600 374.580,95.600 374.800 C 95.600 375.020,96.241 375.200,97.024 375.200 C 97.871 375.200,98.347 375.362,98.200 375.600 C 98.056 375.833,98.455 376.000,99.153 376.000 C 99.813 376.000,100.464 376.180,100.600 376.400 C 100.736 376.620,101.276 376.800,101.800 376.800 C 102.324 376.800,102.864 376.980,103.000 377.200 C 103.136 377.420,103.676 377.600,104.200 377.600 C 104.724 377.600,105.264 377.780,105.400 378.000 C 105.536 378.220,106.267 378.400,107.024 378.400 C 107.781 378.400,108.400 378.580,108.400 378.800 C 108.400 379.020,109.109 379.200,109.976 379.200 C 110.843 379.200,111.664 379.380,111.800 379.600 C 111.936 379.820,112.937 380.000,114.024 380.000 C 115.111 380.000,116.000 380.180,116.000 380.400 C 116.000 380.622,117.067 380.800,118.400 380.800 C 119.828 380.800,120.800 380.972,120.800 381.225 C 120.800 381.459,121.115 381.618,121.500 381.579 C 123.600 381.365,128.417 381.648,128.217 381.973 C 128.077 382.199,131.674 382.362,137.362 382.385 C 143.408 382.410,146.828 382.278,146.992 382.012 C 147.135 381.782,148.730 381.600,150.600 381.600 C 152.444 381.600,154.064 381.420,154.200 381.200 C 154.336 380.980,155.427 380.800,156.624 380.800 C 157.821 380.800,158.800 380.620,158.800 380.400 C 158.800 380.180,159.700 380.000,160.800 380.000 C 161.900 380.000,162.800 379.820,162.800 379.600 C 162.800 379.380,163.522 379.200,164.405 379.200 C 165.288 379.200,166.323 379.042,166.705 378.849 C 167.861 378.265,170.204 377.600,171.105 377.600 C 171.571 377.600,172.064 377.420,172.200 377.200 C 172.336 376.980,172.887 376.800,173.424 376.800 C 173.961 376.800,174.400 376.620,174.400 376.400 C 174.400 376.180,174.940 376.000,175.600 376.000 C 176.260 376.000,176.800 375.820,176.800 375.600 C 176.800 375.380,177.310 375.200,177.933 375.200 C 178.557 375.200,179.202 375.065,179.367 374.900 C 179.532 374.735,179.787 374.585,179.933 374.566 C 180.080 374.548,180.703 374.324,181.318 374.070 C 181.932 373.815,182.921 373.485,183.514 373.336 C 184.107 373.187,184.833 372.824,185.128 372.529 C 185.423 372.234,185.830 372.095,186.032 372.220 C 186.235 372.345,186.400 372.257,186.400 372.024 C 186.400 371.791,186.749 371.600,187.176 371.600 C 187.603 371.600,188.064 371.420,188.200 371.200 C 188.336 370.980,188.807 370.800,189.247 370.800 C 189.687 370.800,189.936 370.620,189.800 370.400 C 189.581 370.045,190.422 369.805,191.330 369.963 C 191.511 369.994,191.545 369.835,191.406 369.610 C 191.267 369.384,191.478 369.196,191.876 369.191 C 192.274 369.186,193.050 368.830,193.600 368.400 C 194.150 367.970,194.825 367.614,195.100 367.609 C 195.375 367.604,195.600 367.464,195.600 367.298 C 195.600 366.935,198.060 365.779,198.530 365.921 C 198.711 365.975,198.745 365.835,198.606 365.610 C 198.467 365.384,198.621 365.200,198.949 365.200 C 199.278 365.200,199.651 364.871,199.778 364.469 C 199.906 364.066,201.493 362.728,203.305 361.495 C 210.826 356.376,219.043 349.073,225.805 341.500 C 227.524 339.575,229.084 338.000,229.272 338.000 C 229.460 338.000,230.226 337.370,230.974 336.600 C 231.721 335.830,232.237 335.200,232.118 335.200 C 232.000 335.200,232.555 334.405,233.352 333.433 C 234.148 332.461,234.800 331.471,234.800 331.233 C 234.800 330.995,234.980 330.800,235.200 330.800 C 235.420 330.800,235.600 330.519,235.600 330.176 C 235.600 329.807,235.788 329.669,236.062 329.838 C 236.336 330.007,236.415 329.949,236.258 329.694 C 236.112 329.458,236.271 328.986,236.611 328.647 C 236.950 328.307,237.222 327.932,237.214 327.814 C 237.159 326.978,237.250 326.784,237.600 327.000 C 237.820 327.136,238.000 327.034,238.000 326.774 C 238.000 326.514,238.719 325.224,239.598 323.908 C 240.476 322.593,241.096 321.355,240.974 321.158 C 240.852 320.961,240.943 320.800,241.176 320.800 C 241.409 320.800,241.600 320.440,241.600 320.000 C 241.600 319.560,241.780 319.200,242.000 319.200 C 242.220 319.200,242.400 318.840,242.400 318.400 C 242.400 317.960,242.580 317.600,242.800 317.600 C 243.020 317.600,243.200 317.240,243.200 316.800 C 243.200 316.360,243.380 316.000,243.600 316.000 C 243.820 316.000,244.000 315.640,244.000 315.200 C 244.000 314.760,244.180 314.400,244.400 314.400 C 244.620 314.400,244.800 314.040,244.800 313.600 C 244.800 313.160,244.980 312.800,245.200 312.800 C 245.420 312.800,245.600 312.451,245.600 312.024 C 245.600 311.597,245.780 311.136,246.000 311.000 C 246.220 310.864,246.400 310.313,246.400 309.776 C 246.400 309.239,246.580 308.800,246.800 308.800 C 247.020 308.800,247.200 308.339,247.200 307.776 C 247.200 307.179,247.371 306.858,247.610 307.006 C 247.835 307.145,247.994 307.111,247.963 306.930 C 247.809 306.048,248.036 304.775,248.315 304.948 C 248.488 305.055,248.670 304.668,248.717 304.089 C 248.765 303.509,248.984 302.856,249.202 302.638 C 249.421 302.419,249.600 301.837,249.600 301.344 C 249.600 300.851,249.780 300.336,250.000 300.200 C 250.220 300.064,250.400 299.513,250.400 298.976 C 250.400 298.439,250.580 298.000,250.800 298.000 C 251.020 298.000,251.200 297.179,251.200 296.176 C 251.200 295.063,251.356 294.449,251.600 294.600 C 251.842 294.749,252.000 294.204,252.000 293.224 C 252.000 292.331,252.143 291.600,252.318 291.600 C 252.493 291.600,252.681 290.934,252.736 290.119 C 252.791 289.305,252.979 288.450,253.154 288.219 C 253.329 287.989,253.515 286.810,253.568 285.600 C 253.620 284.390,253.829 283.340,254.032 283.267 C 254.234 283.193,254.404 282.203,254.410 281.067 C 254.415 279.930,254.592 278.280,254.804 277.400 C 255.186 275.813,255.308 256.257,254.958 252.800 C 254.858 251.810,254.677 249.740,254.555 248.200 C 254.434 246.660,254.170 245.229,253.968 245.020 C 253.765 244.811,253.600 244.058,253.600 243.346 C 253.600 242.634,253.413 241.561,253.185 240.962 C 252.957 240.362,252.748 239.270,252.721 238.536 C 252.693 237.801,252.520 237.200,252.335 237.200 C 252.151 237.200,252.000 236.581,252.000 235.824 C 252.000 235.067,251.820 234.336,251.600 234.200 C 251.380 234.064,251.200 233.451,251.200 232.838 C 251.200 232.225,250.918 231.158,250.573 230.467 C 250.229 229.776,250.059 229.028,250.197 228.805 C 250.335 228.582,250.257 228.400,250.024 228.400 C 249.791 228.400,249.600 227.961,249.600 227.424 C 249.600 226.887,249.420 226.336,249.200 226.200 C 248.980 226.064,248.800 225.513,248.800 224.976 C 248.800 224.439,248.620 224.000,248.400 224.000 C 248.180 224.000,247.997 223.415,247.994 222.700 C 247.989 221.714,247.894 221.545,247.600 222.000 C 247.306 222.455,247.211 222.286,247.206 221.300 C 247.203 220.585,247.020 220.000,246.800 220.000 C 246.580 220.000,246.400 219.561,246.400 219.024 C 246.400 218.487,246.220 217.936,246.000 217.800 C 245.780 217.664,245.600 217.218,245.600 216.810 C 245.600 216.401,245.465 216.007,245.300 215.933 C 244.868 215.741,243.200 212.428,243.200 211.762 C 243.200 211.453,243.020 211.200,242.800 211.200 C 242.580 211.200,242.400 210.855,242.400 210.433 C 242.400 210.012,242.265 209.607,242.100 209.533 C 241.935 209.460,241.260 208.275,240.600 206.901 C 239.940 205.526,239.265 204.401,239.100 204.401 C 238.935 204.400,238.800 204.040,238.800 203.600 C 238.800 203.160,238.620 202.800,238.400 202.800 C 238.180 202.800,238.000 202.564,238.000 202.275 C 238.000 201.987,237.640 201.364,237.200 200.892 C 236.760 200.420,236.400 199.874,236.400 199.679 C 236.400 199.484,236.040 198.998,235.600 198.600 C 235.160 198.202,234.800 197.661,234.800 197.397 C 234.800 197.134,234.260 196.354,233.600 195.663 C 232.940 194.972,232.400 194.242,232.400 194.039 C 232.400 193.837,231.848 193.207,231.174 192.639 C 230.500 192.072,230.060 191.426,230.198 191.204 C 231.569 188.985,219.193 195.084,214.600 198.891 C 214.160 199.255,212.360 200.705,210.600 202.112 C 202.919 208.254,199.121 213.238,200.700 215.105 C 202.546 217.288,202.800 217.634,202.800 217.971 C 202.800 218.170,202.935 218.393,203.100 218.467 C 203.465 218.629,204.807 220.600,205.573 222.100 C 205.882 222.705,206.285 223.200,206.468 223.200 C 206.650 223.200,206.800 223.470,206.800 223.800 C 206.800 224.130,206.980 224.400,207.200 224.400 C 207.420 224.400,207.600 224.745,207.600 225.167 C 207.600 225.588,207.790 225.997,208.022 226.074 C 208.254 226.151,208.490 226.481,208.546 226.807 C 208.800 228.274,209.291 229.191,209.691 228.944 C 209.929 228.797,210.011 228.858,209.874 229.080 C 209.582 229.553,210.431 232.000,210.888 232.000 C 211.059 232.000,211.200 232.450,211.200 233.000 C 211.200 233.550,211.335 234.001,211.500 234.003 C 211.665 234.005,212.008 234.455,212.263 235.004 C 212.613 235.758,212.613 235.938,212.263 235.742 C 211.973 235.579,211.987 235.684,212.300 236.021 C 212.575 236.318,212.800 236.895,212.800 237.304 C 212.800 237.713,212.980 237.936,213.200 237.800 C 213.431 237.657,213.600 238.036,213.600 238.696 C 213.600 239.325,213.774 240.014,213.987 240.227 C 214.199 240.439,214.417 241.195,214.472 241.907 C 214.526 242.618,214.712 243.200,214.885 243.200 C 215.058 243.200,215.200 243.819,215.200 244.576 C 215.200 245.333,215.380 246.064,215.600 246.200 C 215.820 246.336,216.000 247.056,216.000 247.800 C 216.000 248.544,216.180 249.264,216.400 249.400 C 216.620 249.536,216.800 250.717,216.800 252.024 C 216.800 253.392,216.975 254.400,217.213 254.400 C 217.491 254.400,217.567 257.702,217.445 264.500 C 217.240 275.932,216.945 279.737,216.296 279.336 C 216.030 279.171,215.954 279.303,216.098 279.680 C 216.339 280.307,215.179 285.354,214.679 285.854 C 214.526 286.008,214.400 286.496,214.400 286.938 C 214.400 287.974,213.697 290.185,212.748 292.138 C 212.336 292.984,212.000 293.946,212.000 294.276 C 212.000 294.606,211.664 295.354,211.252 295.938 C 210.377 297.182,209.800 298.776,209.948 299.540 C 210.006 299.837,209.900 299.985,209.712 299.869 C 209.524 299.753,209.152 300.185,208.885 300.829 C 208.618 301.473,208.176 302.540,207.902 303.200 C 207.629 303.860,207.269 304.400,207.102 304.400 C 206.936 304.400,206.800 304.720,206.800 305.112 C 206.800 305.503,206.440 306.083,206.000 306.400 C 205.560 306.717,205.200 307.297,205.200 307.688 C 205.200 308.080,205.020 308.400,204.800 308.400 C 204.580 308.400,204.400 308.670,204.400 309.000 C 204.400 309.330,204.220 309.600,204.000 309.600 C 203.780 309.600,203.600 309.793,203.600 310.029 C 203.600 310.621,202.551 311.618,202.248 311.314 C 202.111 311.178,202.000 311.375,202.000 311.751 C 202.000 312.127,201.550 312.920,201.000 313.513 C 200.450 314.107,199.998 314.954,199.996 315.396 C 199.989 316.916,193.093 323.789,185.591 329.752 C 184.414 330.688,181.381 332.712,179.898 333.552 C 179.074 334.018,177.725 334.790,176.900 335.268 C 173.376 337.306,171.712 337.997,170.324 337.998 C 169.512 337.999,168.736 338.180,168.600 338.400 C 168.464 338.620,168.003 338.800,167.576 338.800 C 167.149 338.800,166.800 338.980,166.800 339.200 C 166.800 339.420,166.474 339.600,166.075 339.600 C 165.676 339.600,164.605 339.960,163.694 340.400 C 162.784 340.840,161.580 341.200,161.019 341.200 C 160.459 341.200,160.000 341.356,160.000 341.547 C 160.000 341.860,158.127 342.303,155.703 342.564 C 155.209 342.617,154.684 342.782,154.536 342.930 C 154.388 343.079,153.565 343.200,152.707 343.200 C 151.849 343.200,150.784 343.394,150.340 343.632 C 149.896 343.870,148.333 344.078,146.867 344.096 C 145.400 344.113,143.990 344.288,143.734 344.484 C 142.952 345.084,126.273 344.375,124.931 343.686 C 124.529 343.479,123.360 343.330,122.333 343.355 C 121.287 343.380,120.496 343.224,120.533 343.000 C 120.570 342.780,120.150 342.578,119.600 342.550 C 117.770 342.459,115.185 341.899,114.968 341.547 C 114.849 341.356,114.133 341.200,113.376 341.200 C 112.619 341.200,112.000 341.020,112.000 340.800 C 112.000 340.580,111.640 340.400,111.200 340.400 C 110.760 340.400,110.400 340.220,110.400 340.000 C 110.400 339.780,109.860 339.600,109.200 339.600 C 108.540 339.600,108.000 339.459,108.000 339.287 C 108.000 339.115,107.190 338.735,106.200 338.443 C 105.210 338.151,104.400 337.752,104.400 337.556 C 104.400 337.360,104.040 337.200,103.600 337.200 C 103.160 337.200,102.800 337.020,102.800 336.800 C 102.800 336.580,102.547 336.400,102.238 336.400 C 101.444 336.400,98.326 334.736,97.553 333.900 C 97.197 333.515,96.612 333.200,96.253 333.200 C 95.894 333.200,95.600 333.020,95.600 332.800 C 95.600 332.580,95.364 332.400,95.075 332.400 C 94.787 332.400,94.164 332.040,93.692 331.600 C 93.220 331.160,92.647 330.800,92.420 330.800 C 92.023 330.800,90.672 329.774,89.141 328.310 C 88.744 327.930,87.503 326.975,86.383 326.188 C 84.105 324.587,76.800 317.434,76.800 316.805 C 76.800 316.582,76.620 316.400,76.400 316.400 C 76.180 316.400,76.000 316.230,76.000 316.022 C 76.000 315.815,75.371 314.960,74.602 314.122 C 73.833 313.285,73.203 312.377,73.202 312.103 C 73.201 311.830,72.840 311.382,72.400 311.107 C 71.960 310.832,71.600 310.390,71.600 310.124 C 71.600 309.858,71.356 309.496,71.058 309.320 C 70.435 308.952,69.434 307.200,69.847 307.200 C 69.999 307.200,69.780 306.883,69.361 306.496 C 68.396 305.603,67.600 304.195,67.600 303.382 C 67.600 303.036,67.420 302.864,67.200 303.000 C 66.980 303.136,66.800 302.877,66.800 302.424 C 66.800 301.971,66.620 301.600,66.400 301.600 C 66.180 301.600,66.000 301.348,66.000 301.041 C 66.000 300.733,65.561 299.709,65.024 298.764 C 64.487 297.819,64.138 296.900,64.248 296.723 C 64.357 296.545,64.257 296.400,64.024 296.400 C 63.791 296.400,63.600 296.040,63.600 295.600 C 63.600 295.160,63.420 294.800,63.200 294.800 C 62.980 294.800,62.800 294.440,62.800 294.000 C 62.800 293.560,62.620 293.200,62.400 293.200 C 62.180 293.200,62.000 292.838,62.000 292.395 C 62.000 291.952,61.820 291.232,61.600 290.795 C 61.380 290.358,61.020 289.642,60.800 289.205 C 60.580 288.768,60.400 287.778,60.400 287.005 C 60.400 286.232,60.220 285.600,60.000 285.600 C 59.780 285.600,59.600 284.981,59.600 284.224 C 59.600 283.467,59.420 282.736,59.200 282.600 C 58.980 282.464,58.800 281.633,58.800 280.753 C 58.800 279.873,58.647 279.248,58.459 279.363 C 57.630 279.876,57.179 262.084,57.808 253.688 C 57.977 251.426,58.270 249.480,58.458 249.364 C 58.646 249.248,58.800 248.454,58.800 247.600 C 58.800 246.746,58.980 245.936,59.200 245.800 C 59.420 245.664,59.600 245.034,59.600 244.400 C 59.600 243.766,59.780 243.136,60.000 243.000 C 60.220 242.864,60.400 242.223,60.400 241.576 C 60.400 240.929,60.541 240.400,60.713 240.400 C 60.885 240.400,61.066 239.915,61.115 239.322 C 61.164 238.730,61.338 238.145,61.502 238.022 C 61.666 237.900,61.861 237.440,61.937 237.000 C 62.012 236.560,62.237 236.140,62.437 236.067 C 62.636 235.993,62.800 235.408,62.800 234.767 C 62.800 234.125,62.980 233.600,63.200 233.600 C 63.420 233.600,63.600 233.330,63.600 233.000 C 63.600 232.670,63.780 232.400,64.000 232.400 C 64.220 232.400,64.400 231.961,64.400 231.424 C 64.400 230.887,64.580 230.336,64.800 230.200 C 65.020 230.064,65.200 229.603,65.200 229.176 C 65.200 228.749,65.358 228.400,65.551 228.400 C 65.745 228.400,66.127 227.860,66.400 227.200 C 66.673 226.540,67.055 226.000,67.249 226.000 C 67.442 226.000,67.600 225.640,67.600 225.200 C 67.600 224.760,67.780 224.400,68.000 224.400 C 68.220 224.400,68.400 224.029,68.400 223.576 C 68.400 223.123,68.580 222.864,68.800 223.000 C 69.020 223.136,69.200 222.939,69.200 222.561 C 69.200 221.870,70.717 219.608,72.069 218.284 C 72.471 217.891,72.800 217.216,72.800 216.784 C 72.800 216.353,72.996 216.000,73.236 216.000 C 73.896 216.000,75.171 214.306,75.193 213.400 C 75.209 212.736,75.278 212.702,75.600 213.200 C 75.931 213.711,75.989 213.696,75.994 213.093 C 75.997 212.704,77.170 211.215,78.600 209.785 C 80.030 208.355,81.200 207.284,81.200 207.405 C 81.200 207.526,81.794 207.034,82.519 206.312 C 83.245 205.591,83.786 204.885,83.723 204.744 C 83.659 204.603,84.190 204.202,84.904 203.854 C 86.532 203.057,88.864 200.997,88.523 200.656 C 88.382 200.515,88.565 200.400,88.930 200.400 C 89.295 200.400,90.060 199.995,90.629 199.500 C 91.198 199.005,91.753 198.657,91.862 198.726 C 91.971 198.796,92.362 198.524,92.730 198.124 C 93.099 197.723,93.895 197.140,94.500 196.830 C 95.105 196.519,95.600 196.115,95.600 195.932 C 95.600 195.750,95.960 195.600,96.400 195.600 C 96.840 195.600,97.200 195.420,97.200 195.200 C 97.200 194.980,97.436 194.800,97.725 194.800 C 98.013 194.800,98.636 194.440,99.108 194.000 C 99.580 193.560,100.244 193.200,100.583 193.200 C 100.922 193.200,101.200 193.020,101.200 192.800 C 101.200 192.580,101.560 192.400,102.000 192.400 C 102.440 192.400,102.800 192.220,102.800 192.000 C 102.800 191.780,103.122 191.600,103.515 191.600 C 103.909 191.600,104.926 191.246,105.775 190.813 C 106.624 190.380,107.453 190.109,107.617 190.211 C 107.782 190.312,108.014 190.140,108.134 189.829 C 108.266 189.483,108.672 189.346,109.176 189.478 C 109.645 189.600,110.000 189.501,110.000 189.247 C 110.000 189.001,110.439 188.800,110.976 188.800 C 111.513 188.800,112.064 188.620,112.200 188.400 C 112.336 188.180,112.941 188.000,113.544 188.000 C 114.147 188.000,114.819 187.821,115.038 187.602 C 115.256 187.384,115.909 187.165,116.489 187.117 C 117.068 187.070,117.455 186.888,117.348 186.715 C 117.240 186.542,118.018 186.397,119.076 186.394 C 120.346 186.390,120.810 186.268,120.442 186.034 C 119.869 185.672,121.277 185.463,127.698 184.959 C 129.401 184.825,130.696 184.555,130.574 184.358 C 130.447 184.152,133.441 184.000,137.600 184.000 C 141.715 184.000,144.752 184.153,144.628 184.355 C 144.507 184.550,144.632 184.702,144.904 184.692 C 147.703 184.591,150.805 184.868,150.600 185.200 C 150.448 185.447,151.129 185.600,152.376 185.600 C 153.489 185.600,154.400 185.743,154.400 185.918 C 154.400 186.093,155.070 186.282,155.888 186.337 C 156.706 186.392,157.471 186.564,157.588 186.720 C 157.705 186.876,158.340 187.063,159.000 187.136 C 159.660 187.209,160.371 187.433,160.580 187.634 C 160.789 187.835,161.374 188.000,161.880 188.000 C 162.386 188.000,162.800 188.180,162.800 188.400 C 162.800 188.620,163.239 188.800,163.776 188.800 C 164.313 188.800,164.874 188.996,165.022 189.235 C 165.169 189.474,165.621 189.583,166.026 189.477 C 166.431 189.371,166.822 189.465,166.895 189.684 C 167.078 190.235,169.608 191.035,170.672 190.880 C 171.151 190.809,172.221 189.908,173.049 188.876 C 178.309 182.325,188.886 172.817,197.075 167.278 C 200.103 165.230,200.937 163.600,198.957 163.600 C 198.651 163.600,198.400 163.420,198.400 163.200 C 198.400 162.980,198.130 162.800,197.800 162.800 C 197.470 162.800,197.200 162.620,197.200 162.400 C 197.200 162.180,196.851 162.000,196.424 162.000 C 195.997 162.000,195.529 161.809,195.385 161.575 C 195.155 161.204,193.352 160.344,192.800 160.343 C 192.690 160.343,192.330 160.114,192.000 159.833 C 191.227 159.176,187.891 157.600,187.274 157.600 C 187.013 157.600,186.800 157.420,186.800 157.200 C 186.800 156.980,186.350 156.800,185.800 156.800 C 185.250 156.800,184.800 156.620,184.800 156.400 C 184.800 156.180,184.440 156.000,184.000 156.000 C 183.560 156.000,183.200 155.820,183.200 155.600 C 183.200 155.380,182.761 155.200,182.224 155.200 C 181.687 155.200,181.136 155.020,181.000 154.800 C 180.864 154.580,180.403 154.400,179.976 154.400 C 179.549 154.400,179.200 154.220,179.200 154.000 C 179.200 153.780,178.660 153.600,178.000 153.600 C 177.340 153.600,176.800 153.420,176.800 153.200 C 176.800 152.980,176.260 152.800,175.600 152.800 C 174.940 152.800,174.400 152.620,174.400 152.400 C 174.400 152.180,173.986 152.000,173.480 152.000 C 172.974 152.000,172.389 151.829,172.179 151.619 C 171.970 151.410,171.111 151.192,170.271 151.136 C 169.431 151.079,168.656 150.890,168.548 150.716 C 168.441 150.542,167.913 150.400,167.376 150.400 C 166.839 150.400,166.400 150.220,166.400 150.000 C 166.400 149.780,165.500 149.600,164.400 149.600 C 163.300 149.600,162.400 149.420,162.400 149.200 C 162.400 148.980,161.781 148.800,161.024 148.800 C 160.267 148.800,159.536 148.620,159.400 148.400 C 159.055 147.842,154.152 147.898,153.235 148.471 C 152.655 148.833,151.713 148.825,149.141 148.433 C 145.746 147.917,128.268 148.041,123.700 148.614 C 122.283 148.792,121.600 148.734,121.600 148.439 C 121.600 147.878,116.145 147.842,115.800 148.400 " stroke="none" fill="#fcdb2b" fill-rule="evenodd"></path><path id="path2" d="M296.400 22.000 C 296.400 22.220,295.849 22.400,295.176 22.400 C 294.463 22.400,294.056 22.567,294.200 22.800 C 294.338 23.023,294.037 23.200,293.524 23.200 C 293.016 23.201,292.077 23.651,291.438 24.200 C 290.799 24.750,290.143 25.200,289.980 25.200 C 289.499 25.200,287.200 27.483,287.200 27.960 C 287.200 28.202,287.020 28.400,286.800 28.400 C 286.580 28.400,286.400 28.670,286.400 29.000 C 286.400 29.330,286.220 29.600,286.000 29.600 C 285.780 29.600,285.600 30.050,285.600 30.600 C 285.600 31.150,285.420 31.600,285.200 31.600 C 284.980 31.600,284.800 32.129,284.800 32.776 C 284.800 33.423,284.620 34.064,284.400 34.200 C 284.180 34.336,284.000 35.787,284.000 37.424 L 284.000 40.400 280.994 40.400 C 278.071 40.400,274.800 41.085,274.800 41.697 C 274.800 41.864,274.456 42.000,274.036 42.000 C 273.114 42.000,269.200 45.012,269.200 45.721 C 269.200 45.997,268.840 46.483,268.400 46.800 C 267.960 47.117,267.600 47.697,267.600 48.088 C 267.600 48.480,267.420 48.800,267.200 48.800 C 266.980 48.800,266.800 49.340,266.800 50.000 C 266.800 50.660,266.620 51.200,266.400 51.200 C 266.155 51.200,266.000 53.133,266.000 56.200 C 266.000 59.267,266.155 61.200,266.400 61.200 C 266.620 61.200,266.800 61.740,266.800 62.400 C 266.800 63.060,266.980 63.600,267.200 63.600 C 267.420 63.600,267.600 63.920,267.600 64.312 C 267.600 64.703,267.960 65.283,268.400 65.600 C 268.840 65.917,269.200 66.421,269.200 66.719 C 269.200 67.422,274.322 72.400,275.046 72.400 C 275.351 72.400,275.600 72.559,275.600 72.753 C 275.600 72.948,275.915 73.211,276.300 73.339 C 276.685 73.467,277.720 73.877,278.600 74.250 C 280.272 74.960,303.968 75.616,305.531 74.996 C 305.899 74.851,307.820 74.738,309.800 74.745 C 316.514 74.771,318.400 73.602,318.400 69.418 C 318.400 67.939,318.574 66.800,318.800 66.800 C 319.046 66.800,319.200 64.800,319.200 61.600 C 319.200 58.269,319.349 56.400,319.616 56.400 C 320.143 56.400,319.884 41.061,319.308 38.200 C 318.707 35.217,317.520 31.879,316.819 31.200 C 316.479 30.870,316.153 30.368,316.095 30.084 C 315.972 29.481,312.406 25.830,312.388 26.289 C 312.381 26.460,312.195 26.291,311.975 25.913 C 311.755 25.535,310.950 24.929,310.187 24.567 C 309.424 24.205,308.800 23.749,308.800 23.554 C 308.800 23.359,308.451 23.200,308.024 23.200 C 307.597 23.200,307.136 23.020,307.000 22.800 C 306.864 22.580,306.223 22.400,305.576 22.400 C 304.929 22.400,304.400 22.220,304.400 22.000 C 304.400 21.760,302.800 21.600,300.400 21.600 C 298.000 21.600,296.400 21.760,296.400 22.000 M109.800 68.800 C 109.664 69.020,108.933 69.200,108.176 69.200 C 107.419 69.200,106.800 69.380,106.800 69.600 C 106.800 69.820,106.260 70.000,105.600 70.000 C 104.940 70.000,104.400 70.180,104.400 70.400 C 104.400 70.620,104.040 70.800,103.600 70.800 C 103.160 70.800,102.800 70.980,102.800 71.200 C 102.800 71.420,102.440 71.600,102.000 71.600 C 101.560 71.600,101.200 71.780,101.200 72.000 C 101.200 72.220,100.840 72.400,100.400 72.400 C 99.960 72.400,99.600 72.550,99.600 72.732 C 99.600 72.915,99.105 73.318,98.500 73.627 C 96.896 74.446,92.000 79.234,92.000 79.983 C 92.000 80.335,91.640 80.883,91.200 81.200 C 90.760 81.517,90.400 82.097,90.400 82.488 C 90.400 82.880,90.220 83.200,90.000 83.200 C 89.780 83.200,89.600 83.560,89.600 84.000 C 89.600 84.440,89.420 84.800,89.200 84.800 C 88.980 84.800,88.800 85.160,88.800 85.600 C 88.800 86.040,88.620 86.400,88.400 86.400 C 88.180 86.400,88.000 86.940,88.000 87.600 C 88.000 88.260,87.820 88.800,87.600 88.800 C 87.380 88.800,87.200 89.520,87.200 90.400 C 87.200 91.280,87.020 92.000,86.800 92.000 C 86.548 92.000,86.400 94.733,86.400 99.400 C 86.400 104.067,86.548 106.800,86.800 106.800 C 87.020 106.800,87.200 107.430,87.200 108.200 C 87.200 108.970,87.380 109.600,87.600 109.600 C 87.820 109.600,88.000 110.140,88.000 110.800 C 88.000 111.460,88.180 112.000,88.400 112.000 C 88.620 112.000,88.800 112.349,88.800 112.776 C 88.800 113.203,88.980 113.664,89.200 113.800 C 89.420 113.936,89.600 114.404,89.600 114.840 C 89.600 115.277,89.960 116.020,90.400 116.492 C 90.840 116.964,91.200 117.587,91.200 117.875 C 91.200 118.164,91.380 118.400,91.600 118.400 C 91.820 118.400,92.000 118.664,92.000 118.986 C 92.000 119.569,93.116 121.292,95.400 124.232 C 97.002 126.295,108.020 137.284,111.009 139.800 C 112.316 140.900,114.085 142.475,114.941 143.300 C 115.796 144.125,116.669 144.800,116.880 144.800 C 117.090 144.800,117.928 145.475,118.741 146.300 C 120.514 148.100,120.783 148.194,123.600 147.990 C 126.171 147.805,148.411 147.827,152.159 148.019 C 154.705 148.149,154.727 148.141,156.328 146.475 C 157.213 145.554,158.046 144.800,158.179 144.800 C 158.312 144.800,159.223 144.035,160.202 143.100 C 162.803 140.618,163.640 139.898,165.200 138.799 C 166.918 137.590,179.200 125.117,179.200 124.582 C 179.200 124.478,179.740 123.828,180.400 123.137 C 181.060 122.446,181.600 121.678,181.600 121.429 C 181.600 121.180,181.960 120.717,182.400 120.400 C 182.840 120.083,183.200 119.503,183.200 119.112 C 183.200 118.720,183.359 118.400,183.553 118.400 C 183.748 118.400,184.007 118.085,184.129 117.700 C 184.251 117.315,184.659 116.460,185.036 115.800 C 186.129 113.886,186.400 113.251,186.400 112.605 C 186.400 112.272,186.580 112.000,186.800 112.000 C 187.020 112.000,187.200 111.460,187.200 110.800 C 187.200 110.140,187.380 109.600,187.600 109.600 C 187.820 109.600,188.000 108.981,188.000 108.224 C 188.000 107.467,188.180 106.736,188.400 106.600 C 188.642 106.451,188.800 103.604,188.800 99.400 C 188.800 95.196,188.642 92.349,188.400 92.200 C 188.180 92.064,188.000 91.582,188.000 91.129 C 188.000 90.097,186.307 85.047,185.901 84.867 C 185.735 84.793,185.600 84.388,185.600 83.967 C 185.600 83.545,185.420 83.200,185.200 83.200 C 184.980 83.200,184.800 82.964,184.800 82.675 C 184.800 82.387,184.440 81.764,184.000 81.292 C 183.560 80.820,183.200 80.264,183.200 80.057 C 183.200 79.237,176.674 73.200,175.787 73.200 C 175.464 73.200,175.200 73.020,175.200 72.800 C 175.200 72.580,174.930 72.400,174.600 72.400 C 174.270 72.400,174.000 72.220,174.000 72.000 C 174.000 71.780,173.640 71.600,173.200 71.600 C 172.760 71.600,172.400 71.420,172.400 71.200 C 172.400 70.980,172.040 70.800,171.600 70.800 C 171.160 70.800,170.800 70.620,170.800 70.400 C 170.800 70.180,170.260 70.000,169.600 70.000 C 168.940 70.000,168.400 69.820,168.400 69.600 C 168.400 69.380,167.691 69.200,166.824 69.200 C 165.957 69.200,165.136 69.020,165.000 68.800 C 164.858 68.569,162.729 68.400,159.976 68.400 C 157.059 68.400,155.200 68.556,155.200 68.800 C 155.200 69.020,154.480 69.200,153.600 69.200 C 152.720 69.200,152.000 69.380,152.000 69.600 C 152.000 69.820,151.460 70.000,150.800 70.000 C 150.140 70.000,149.600 70.180,149.600 70.400 C 149.600 70.620,149.240 70.800,148.800 70.800 C 148.360 70.800,148.000 70.980,148.000 71.200 C 148.000 71.420,147.640 71.600,147.200 71.600 C 146.760 71.600,146.400 71.780,146.400 72.000 C 146.400 72.220,146.080 72.400,145.688 72.400 C 145.297 72.400,144.717 72.760,144.400 73.200 C 144.083 73.640,143.684 74.000,143.515 74.000 C 142.850 74.000,138.000 78.546,138.000 79.169 C 138.000 79.406,137.820 79.600,137.600 79.600 C 137.380 79.600,137.200 79.452,137.200 79.270 C 137.200 78.978,136.207 77.947,132.987 74.900 C 132.464 74.405,131.798 74.000,131.506 74.000 C 131.215 74.000,130.717 73.640,130.400 73.200 C 130.083 72.760,129.503 72.400,129.112 72.400 C 128.720 72.400,128.400 72.220,128.400 72.000 C 128.400 71.780,128.040 71.600,127.600 71.600 C 127.160 71.600,126.800 71.420,126.800 71.200 C 126.800 70.980,126.440 70.800,126.000 70.800 C 125.560 70.800,125.200 70.620,125.200 70.400 C 125.200 70.180,124.750 70.000,124.200 70.000 C 123.650 70.000,123.200 69.820,123.200 69.600 C 123.200 69.380,122.480 69.200,121.600 69.200 C 120.720 69.200,120.000 69.020,120.000 68.800 C 120.000 68.555,118.075 68.400,115.024 68.400 C 112.137 68.400,109.943 68.568,109.800 68.800 M352.600 78.800 C 352.464 79.020,351.913 79.200,351.376 79.200 C 350.839 79.200,350.400 79.380,350.400 79.600 C 350.400 79.820,350.040 80.000,349.600 80.000 C 349.160 80.000,348.800 80.180,348.800 80.400 C 348.800 80.620,348.548 80.800,348.240 80.800 C 347.609 80.800,344.800 83.469,344.800 84.069 C 344.800 84.282,344.530 84.727,344.201 85.057 C 343.871 85.386,343.483 86.138,343.339 86.728 C 343.195 87.318,342.880 87.929,342.638 88.086 C 342.335 88.285,342.216 92.064,342.252 100.387 C 342.318 115.671,342.417 116.000,346.971 116.000 C 348.457 116.000,349.600 116.174,349.600 116.400 C 349.600 116.656,353.192 116.800,359.576 116.800 C 365.796 116.800,369.646 116.649,369.800 116.400 C 369.936 116.180,370.487 116.000,371.024 116.000 C 371.561 116.000,372.000 115.820,372.000 115.600 C 372.000 115.380,372.360 115.200,372.800 115.200 C 373.240 115.200,373.600 115.050,373.600 114.868 C 373.600 114.685,374.095 114.280,374.700 113.968 C 376.129 113.230,377.600 111.779,377.600 111.106 C 377.600 110.815,377.960 110.317,378.400 110.000 C 378.840 109.683,379.200 109.103,379.200 108.712 C 379.200 108.320,379.380 108.000,379.600 108.000 C 379.843 108.000,380.000 106.200,380.000 103.400 C 380.000 100.600,379.843 98.800,379.600 98.800 C 379.380 98.800,379.200 98.528,379.200 98.195 C 379.200 95.204,374.659 92.000,370.420 92.000 L 367.600 92.000 367.600 89.600 C 367.600 88.267,367.422 87.200,367.200 87.200 C 366.980 87.200,366.800 86.660,366.800 86.000 C 366.800 85.340,366.620 84.800,366.400 84.800 C 366.180 84.800,366.000 84.525,366.000 84.189 C 366.000 83.396,362.604 80.000,361.811 80.000 C 361.475 80.000,361.200 79.820,361.200 79.600 C 361.200 79.380,360.660 79.200,360.000 79.200 C 359.340 79.200,358.800 79.020,358.800 78.800 C 358.800 78.569,357.541 78.400,355.824 78.400 C 354.187 78.400,352.736 78.580,352.600 78.800 " stroke="none" fill="#ef657e" fill-rule="evenodd"></path><path id="path3" d="M124.400 148.031 C 123.410 148.234,122.375 148.316,122.100 148.213 C 121.825 148.110,121.600 148.224,121.600 148.468 C 121.600 148.781,122.337 148.812,124.100 148.576 C 127.424 148.132,147.546 148.116,150.645 148.555 C 152.043 148.754,153.182 148.752,153.307 148.551 C 153.726 147.873,127.476 147.400,124.400 148.031 " stroke="none" fill="#f4c02c" fill-rule="evenodd"></path><path id="path4" d="M124.400 148.031 C 123.410 148.234,122.375 148.316,122.100 148.213 C 121.825 148.110,121.600 148.224,121.600 148.468 C 121.600 148.781,122.337 148.812,124.100 148.576 C 127.424 148.132,147.546 148.116,150.645 148.555 C 152.043 148.754,153.182 148.752,153.307 148.551 C 153.726 147.873,127.476 147.400,124.400 148.031 " stroke="none" fill="#f4c02c" fill-rule="evenodd"></path></g></svg>