<?xml version="1.0" encoding="UTF-8"?>
<svg width="425px" height="309px" viewBox="0 0 425 309" version="1.1" xmlns="http://www.w3.org/2000/svg" xmlns:xlink="http://www.w3.org/1999/xlink">
    <!-- Generator: Sketch 50.2 (55047) - http://www.bohemiancoding.com/sketch -->
    <title>Shape</title>
    <desc>Created with Sketch.</desc>
    <defs></defs>
    <g id="Design" stroke="none" stroke-width="1" fill="none" fill-rule="evenodd">
        <g id="UPS-Truck" transform="translate(-19.000000, -77.000000)" fill="#000000" fill-rule="nonzero">
            <path d="M385.833333,154.333333 L327.958333,154.333333 L327.958333,77.1666667 L57.875,77.1666667 C36.5577083,77.1666667 19.2916667,94.4327083 19.2916667,115.75 L19.2916667,327.958333 L57.875,327.958333 C57.875,359.886042 83.8222917,385.833333 115.75,385.833333 C147.677708,385.833333 173.625,359.886042 173.625,327.958333 L289.375,327.958333 C289.375,359.886042 315.322292,385.833333 347.25,385.833333 C379.177708,385.833333 405.125,359.886042 405.125,327.958333 L443.708333,327.958333 L443.708333,231.5 L385.833333,154.333333 Z M115.75,356.895833 C99.7379167,356.895833 86.8125,343.970417 86.8125,327.958333 C86.8125,311.94625 99.7379167,299.020833 115.75,299.020833 C131.762083,299.020833 144.6875,311.94625 144.6875,327.958333 C144.6875,343.970417 131.762083,356.895833 115.75,356.895833 Z M376.1875,183.270833 L414.095625,231.5 L327.958333,231.5 L327.958333,183.270833 L376.1875,183.270833 Z M347.25,356.895833 C331.237917,356.895833 318.3125,343.970417 318.3125,327.958333 C318.3125,311.94625 331.237917,299.020833 347.25,299.020833 C363.262083,299.020833 376.1875,311.94625 376.1875,327.958333 C376.1875,343.970417 363.262083,356.895833 347.25,356.895833 Z" id="Shape"></path>
        </g>
    </g>
</svg>